<?xml version="1.0" standalone="no"?>
<!DOCTYPE svg PUBLIC "-//W3C//DTD SVG 20010904//EN"
 "http://www.w3.org/TR/2001/REC-SVG-20010904/DTD/svg10.dtd">
<svg version="1.0" xmlns="http://www.w3.org/2000/svg"
 width="1418.000000pt" height="1418.000000pt" viewBox="0 0 1418.000000 1418.000000"
 preserveAspectRatio="xMidYMid meet">
<metadata>
Created by potrace 1.14, written by Peter Selinger 2001-2017
</metadata>
<g transform="translate(0.000000,1418.000000) scale(0.100000,-0.100000)"
fill="#000000" stroke="none">
<path d="M1375 14173 c-11 -3 -38 -13 -60 -23 -22 -10 -74 -28 -115 -39 -41
-12 -111 -33 -155 -46 -92 -28 -203 -52 -325 -71 -47 -7 -128 -21 -180 -32
-82 -17 -347 -35 -507 -33 -30 0 -33 -3 -33 -29 l0 -29 112 5 c62 3 131 10
153 15 22 6 121 12 220 15 99 2 198 9 220 14 22 5 99 12 170 15 72 3 144 10
160 15 66 20 392 38 438 24 14 -5 17 2 17 43 0 63 -14 111 -42 140 -21 23 -34
25 -73 16z"/>
<path d="M2560 14161 c0 -11 -3 -26 -6 -35 -4 -10 -1 -16 9 -16 11 0 16 -21
22 -92 4 -51 7 -108 6 -126 -2 -17 2 -47 9 -66 6 -18 15 -87 20 -152 5 -66 12
-132 15 -149 3 -16 6 -50 6 -75 1 -25 6 -51 11 -58 6 -7 13 -50 15 -95 2 -45
8 -106 14 -134 10 -48 13 -53 38 -53 41 0 65 -22 59 -53 -4 -23 -2 -27 18 -27
30 0 47 -31 39 -74 -7 -36 11 -180 27 -209 5 -10 13 -73 19 -140 13 -170 25
-213 72 -275 34 -45 47 -54 96 -68 31 -8 65 -19 76 -24 40 -18 141 -52 169
-57 l28 -6 -5 124 c-3 68 -10 151 -16 184 -6 33 -11 89 -12 125 -1 36 -6 73
-11 83 -5 9 -10 70 -12 134 -3 99 -6 118 -22 130 -10 7 -24 13 -32 13 -43 0
-121 37 -165 79 -82 78 -94 113 -107 331 -5 74 -15 176 -24 225 -8 50 -20 119
-26 154 -6 35 -9 70 -6 77 3 7 -2 59 -9 116 -8 56 -16 128 -19 158 -3 30 -5
58 -5 63 -1 4 -66 7 -146 7 -136 0 -145 -1 -145 -19z m300 -955 c0 -21 -21
-31 -30 -15 -5 7 -6 17 -4 21 9 14 34 9 34 -6z"/>
<path d="M5532 14058 c4 -68 10 -175 13 -238 3 -63 8 -140 10 -170 12 -125 22
-382 19 -475 -2 -55 1 -118 7 -139 6 -22 14 -74 18 -115 7 -63 14 -86 44 -132
29 -46 41 -56 64 -57 49 0 68 -7 76 -26 6 -14 14 -17 40 -12 92 17 107 18 121
7 11 -10 21 -9 44 3 45 23 164 11 297 -31 27 -9 54 -20 60 -24 5 -5 17 -9 27
-9 21 0 53 -44 43 -60 -4 -6 -2 -17 5 -25 8 -9 8 -20 2 -32 -13 -24 -5 -169
12 -216 9 -28 11 -52 4 -85 -5 -26 -9 -104 -9 -174 0 -119 2 -128 26 -165 26
-37 46 -47 123 -60 17 -3 32 -9 32 -15 0 -5 6 -6 13 -1 17 11 406 13 413 1 3
-5 16 -3 29 6 18 12 35 13 76 7 30 -5 57 -7 60 -5 3 2 127 6 275 9 191 4 271
10 276 18 6 9 12 9 28 0 11 -7 33 -13 49 -13 17 0 31 -6 35 -16 3 -8 10 -13
15 -9 6 3 7 13 4 22 -4 11 -3 14 6 9 7 -5 10 -14 7 -22 -3 -9 4 -16 22 -20 44
-9 52 -13 52 -22 0 -16 -52 -32 -132 -41 -44 -5 -95 -18 -119 -30 -22 -12 -59
-23 -82 -25 -23 -3 -55 -8 -71 -12 -23 -6 -32 -2 -47 17 -18 24 -18 24 -48 6
-18 -10 -36 -15 -44 -10 -14 9 -50 5 -57 -7 -7 -11 -109 -15 -138 -5 -19 6
-24 4 -29 -14 -5 -18 -11 -21 -30 -16 -15 3 -25 1 -29 -9 -4 -10 -15 -13 -39
-9 -19 3 -42 2 -52 -3 -10 -4 -67 -9 -126 -10 -60 -1 -113 -6 -119 -12 -6 -6
-21 -7 -37 -2 -37 10 -99 4 -118 -12 -13 -11 -18 -10 -26 3 -9 15 -12 15 -38
0 -23 -13 -32 -14 -47 -4 -13 8 -23 8 -30 1 -5 -5 -18 -7 -28 -4 -11 3 -22 6
-26 7 -4 0 -22 4 -40 10 -44 12 -108 -5 -108 -30 0 -31 52 -90 87 -97 51 -10
70 -35 78 -104 4 -34 5 -64 2 -66 -3 -3 -1 -19 5 -35 7 -21 7 -38 -2 -59 -10
-24 -10 -33 0 -46 9 -10 14 -58 16 -147 2 -73 8 -159 14 -192 6 -33 13 -85 15
-115 3 -30 7 -75 9 -100 5 -46 5 -55 4 -112 0 -18 3 -55 6 -83 12 -84 12 -137
-1 -154 -8 -11 -8 -21 0 -36 14 -26 16 -104 3 -130 -13 -26 -8 -148 7 -157 6
-3 13 -28 16 -55 5 -42 9 -48 31 -51 14 -2 32 -13 41 -24 14 -19 26 -20 150
-19 74 1 182 5 241 10 68 6 124 5 154 -1 33 -7 74 -7 133 1 47 6 205 13 349
16 145 3 269 8 275 12 22 13 131 3 140 -13 8 -13 11 -13 32 0 37 25 73 3 41
-24 -8 -6 -16 -23 -18 -37 -4 -37 -26 -41 -30 -6 -2 20 -9 29 -25 31 -17 3
-20 -1 -16 -17 7 -26 -37 -45 -84 -38 -19 4 -36 1 -43 -7 -5 -8 -30 -21 -55
-30 -35 -14 -48 -15 -65 -6 -18 10 -31 7 -78 -18 -54 -29 -59 -30 -96 -17 -35
12 -41 12 -51 -2 -9 -13 -16 -13 -33 -4 -17 9 -27 8 -44 -3 -17 -11 -48 -15
-113 -13 -50 1 -97 -2 -105 -7 -8 -6 -34 -9 -58 -7 -27 2 -52 -3 -69 -14 -17
-12 -35 -15 -59 -10 -23 4 -41 1 -56 -10 -25 -17 -74 -20 -83 -5 -10 17 -25
11 -37 -15 -7 -15 -19 -24 -32 -24 -28 0 -110 -23 -127 -37 -13 -10 -57 -23
-133 -39 -29 -6 -76 -47 -76 -65 0 -5 8 -24 19 -43 14 -26 18 -49 15 -107 -2
-41 -6 -89 -9 -105 -5 -23 -2 -35 14 -49 17 -16 21 -31 21 -87 0 -37 -5 -80
-10 -95 -8 -20 -8 -29 2 -35 9 -6 -1 -21 -35 -54 -25 -26 -51 -43 -57 -40 -17
10 -50 -25 -50 -52 0 -27 26 -41 43 -24 18 18 25 14 52 -29 l26 -41 -22 -59
c-12 -33 -19 -66 -16 -74 3 -8 -1 -20 -9 -26 -11 -10 -14 -9 -14 4 0 9 -5 16
-11 16 -6 0 -9 -7 -6 -15 4 -8 12 -42 19 -76 10 -49 10 -63 0 -67 -24 -8 -11
-82 14 -82 21 0 17 -34 -8 -65 -19 -25 -20 -28 -5 -36 15 -9 15 -13 -4 -49
-19 -37 -19 -40 -3 -71 25 -49 50 -280 33 -304 -3 -5 -9 -26 -11 -45 -3 -19
-8 -43 -13 -52 -5 -13 -3 -18 9 -18 9 0 16 6 16 13 1 27 29 -40 30 -70 0 -18
11 -49 25 -69 29 -42 28 -32 11 -151 -7 -51 -9 -98 -4 -106 10 -19 -15 -47
-43 -47 -19 0 -25 5 -76 71 -27 34 -28 41 -28 139 0 79 3 104 14 108 7 2 22
13 33 24 15 15 17 22 7 34 -6 8 -17 14 -24 14 -7 0 -18 7 -25 15 -10 13 -10
19 4 33 9 11 16 36 16 60 0 31 4 42 15 42 10 0 15 9 14 28 0 15 -3 21 -6 15
-12 -31 -30 -11 -32 34 -1 30 -7 50 -16 56 -8 4 -15 19 -15 33 0 18 -7 28 -20
31 -25 7 -23 36 2 41 12 2 19 -5 24 -23 5 -19 11 -24 25 -20 14 5 22 0 28 -17
8 -20 10 -21 16 -5 4 9 2 24 -4 31 -7 8 -9 27 -6 43 5 25 4 26 -4 6 -12 -26
-29 -29 -56 -9 -11 8 -16 19 -12 30 4 9 2 16 -4 16 -6 0 -8 8 -5 18 3 12 -7
25 -34 44 -42 29 -51 52 -24 62 19 7 11 22 -17 29 -15 4 -19 2 -15 -8 2 -7 -2
-19 -10 -26 -12 -9 -20 -9 -40 2 -22 11 -27 11 -34 -1 -6 -8 -10 -21 -10 -27
0 -7 -9 -13 -20 -13 -16 0 -20 7 -20 30 0 20 5 30 15 30 8 0 15 5 15 10 0 6
-9 10 -19 10 -21 0 -31 19 -31 55 0 13 -4 27 -10 30 -5 3 -14 24 -20 46 -11
39 -13 41 -44 35 -30 -6 -35 -3 -46 24 -7 16 -10 36 -7 44 3 8 1 17 -6 19 -9
3 -9 10 1 27 16 26 9 38 -11 21 -11 -9 -17 -8 -27 4 -7 8 -24 15 -39 15 -22 0
-28 -7 -39 -40 -6 -22 -12 -48 -12 -59 0 -10 -7 -24 -15 -31 -9 -7 -13 -21
-10 -31 4 -12 -1 -22 -15 -29 -14 -7 -20 -21 -20 -44 0 -50 -36 -77 -113 -85
-14 -2 -3 -84 12 -89 11 -4 12 2 7 23 -5 19 -3 31 6 36 24 16 39 9 49 -21 6
-16 17 -30 24 -30 10 0 14 -16 14 -57 0 -47 3 -60 22 -74 17 -13 22 -26 21
-55 -1 -22 -2 -52 -2 -69 -1 -16 -7 -39 -16 -50 -13 -18 -15 -18 -31 -3 -13
14 -14 20 -4 32 16 19 -3 30 -29 16 -26 -14 -40 -5 -40 23 0 35 -11 67 -21 61
-12 -7 -11 -131 1 -139 6 -3 10 -18 10 -33 0 -49 22 -77 59 -77 35 0 61 -24
61 -57 0 -10 7 -18 15 -18 23 0 30 -28 12 -48 -15 -17 -9 -46 10 -48 4 0 17
-5 27 -9 13 -6 21 -5 24 3 2 7 13 12 25 12 11 0 28 7 38 16 16 15 20 15 41 0
12 -9 32 -16 43 -16 12 0 32 -11 45 -25 l23 -25 -27 0 c-32 0 -47 -28 -23 -42
23 -12 21 -31 -3 -53 -38 -35 -19 -69 39 -67 22 1 43 -3 46 -9 4 -6 24 -8 48
-4 55 7 71 -3 58 -38 -9 -24 -16 -27 -63 -28 -80 -3 -137 -1 -193 7 -46 6 -54
3 -83 -21 -18 -15 -32 -30 -32 -34 0 -11 63 -31 97 -31 17 0 64 -14 104 -31
61 -26 89 -32 157 -34 88 -2 102 -9 102 -51 0 -12 3 -37 6 -55 4 -23 3 -30 -4
-20 -7 10 -11 4 -14 -20 -5 -33 8 -79 22 -79 3 0 17 -19 30 -42 22 -39 24 -55
25 -179 0 -133 -1 -136 -28 -172 -24 -32 -31 -35 -52 -27 -24 9 -140 6 -200
-6 -57 -10 -165 82 -165 141 0 45 13 50 135 51 63 1 122 5 130 8 8 3 15 17 15
31 0 35 -53 57 -140 61 -62 2 -67 5 -112 48 -65 64 -102 156 -111 279 -1 13
-10 17 -38 17 -32 0 -36 -3 -32 -19 3 -10 -1 -30 -8 -42 -7 -13 -12 -28 -10
-34 3 -5 5 -42 6 -82 1 -65 4 -77 35 -120 34 -47 35 -50 32 -128 -2 -51 -9
-86 -18 -96 -12 -14 -10 -21 22 -63 22 -28 54 -54 80 -65 32 -15 45 -27 50
-48 4 -15 11 -33 15 -39 6 -7 -4 -17 -29 -28 -30 -14 -48 -15 -95 -8 -32 5
-68 7 -81 5 -20 -4 -22 -8 -15 -31 19 -64 28 -106 23 -114 -8 -12 -31 -10 -46
5 -7 8 -25 17 -40 20 -18 5 -30 16 -34 32 -3 13 -17 31 -30 40 -13 8 -24 20
-24 27 0 27 -43 48 -100 48 -40 0 -62 5 -70 15 -7 9 -20 13 -27 11 -11 -5 -13
0 -8 16 7 19 5 20 -16 13 -13 -5 -73 -10 -134 -11 -60 -2 -118 -5 -127 -8 -10
-2 -18 0 -18 4 0 8 -15 12 -94 26 -29 5 -38 4 -34 -6 2 -8 14 -14 26 -15 31
-2 40 -15 19 -26 -20 -11 -23 -38 -4 -41 6 -1 30 -2 52 -4 68 -4 139 -16 153
-27 7 -5 12 -28 11 -51 -1 -22 -1 -49 -1 -58 2 -22 28 -24 36 -2 7 19 26 9 26
-16 0 -25 27 -33 61 -16 27 14 29 13 30 -7 0 -12 3 -16 6 -9 2 6 11 12 19 12
13 0 16 7 19 51 0 9 7 24 14 33 12 14 16 14 42 -4 15 -11 31 -30 34 -41 4 -11
12 -18 18 -17 7 1 28 -13 47 -31 33 -32 34 -34 15 -47 -18 -14 -18 -14 1 -29
10 -8 25 -15 32 -15 15 0 57 25 89 53 21 19 26 19 63 7 32 -11 38 -16 26 -22
-24 -14 -19 -26 13 -33 60 -13 108 -8 139 15 24 18 38 21 74 16 65 -9 72 -9
88 -2 10 4 19 -3 28 -21 18 -39 16 -43 -23 -43 -25 0 -33 -4 -29 -14 3 -8 -6
-26 -21 -40 -14 -14 -23 -31 -20 -36 8 -14 38 -13 53 2 15 15 21 8 24 -25 3
-29 8 -33 25 -16 5 5 50 12 98 14 48 2 93 9 99 15 16 16 17 297 1 332 -31 64
-39 122 -23 168 15 46 25 55 71 65 l28 6 -7 68 c-6 64 -5 70 15 80 23 13 29
55 10 67 -7 4 -9 24 -6 50 3 29 -2 56 -14 85 -11 23 -17 50 -14 60 4 10 1 28
-5 39 -9 17 -8 32 6 71 20 55 27 63 63 74 22 7 24 5 18 -23 -7 -33 2 -44 46
-58 26 -9 38 -31 13 -26 -7 1 -20 -6 -30 -17 -13 -14 -18 -45 -22 -132 -5
-106 -4 -119 21 -189 55 -155 44 -140 97 -140 26 0 50 4 53 10 3 5 -5 25 -18
42 -28 39 -33 53 -53 173 -19 112 -19 158 1 230 13 49 37 63 97 57 29 -3 56
-9 59 -15 4 -5 0 -35 -8 -66 -8 -31 -14 -63 -14 -71 0 -36 21 -170 35 -224 9
-33 14 -62 11 -64 -2 -3 0 -13 6 -24 12 -22 29 -15 29 12 0 26 35 15 49 -16
11 -24 26 -29 55 -18 13 5 13 10 4 27 -6 12 -11 35 -10 51 1 32 29 151 41 176
4 8 6 42 5 75 -4 64 3 75 47 75 49 0 55 -20 57 -198 2 -137 -1 -167 -15 -188
-14 -23 -15 -27 -1 -41 14 -13 40 -14 209 -5 183 9 268 21 314 43 11 5 115 16
230 24 116 9 242 20 280 25 39 5 97 9 129 9 39 1 65 6 76 16 10 9 45 18 81 21
90 9 101 -4 102 -128 3 -178 -34 -538 -55 -538 -12 0 -60 25 -103 55 -52 35
-69 24 -62 -39 8 -71 23 -136 40 -171 8 -16 18 -56 22 -87 3 -31 13 -62 21
-69 8 -6 14 -23 14 -37 0 -14 9 -44 19 -66 11 -23 22 -63 25 -89 5 -52 17 -73
47 -82 11 -4 19 -16 19 -28 1 -38 33 -92 58 -95 13 -2 22 -10 22 -20 0 -25
-25 -67 -38 -65 -6 2 -16 -7 -23 -18 -8 -17 -7 -28 4 -53 9 -17 26 -53 38 -81
13 -27 31 -56 41 -63 10 -7 18 -21 18 -31 0 -10 11 -23 25 -29 30 -14 33 -47
5 -64 -18 -12 -14 -14 42 -25 45 -8 80 -9 121 -2 31 6 62 7 67 4 5 -3 24 0 42
8 18 7 71 22 117 33 79 18 84 21 99 54 9 19 22 43 30 52 8 9 18 35 23 58 15
65 56 145 101 195 22 24 26 39 25 76 -3 65 13 81 77 77 l51 -3 3 -38 c2 -24
10 -42 23 -50 10 -6 19 -17 19 -24 0 -19 40 -26 66 -13 22 13 23 14 5 29 -24
21 -36 81 -16 81 13 0 55 -50 55 -66 0 -16 45 -74 58 -74 6 0 12 -4 12 -9 0
-4 18 -21 41 -36 47 -33 61 -55 49 -75 -7 -12 -12 -12 -22 -2 -20 20 -48 15
-48 -9 0 -12 -8 -23 -20 -26 -11 -3 -20 -9 -20 -13 0 -5 -3 -15 -6 -24 -5 -12
2 -15 33 -13 30 2 37 6 35 20 -3 20 7 21 43 5 21 -9 50 -5 170 22 186 43 231
67 267 140 15 30 27 61 28 67 0 15 53 44 95 53 47 9 57 40 52 156 -5 110 -15
137 -61 155 -24 11 -31 10 -41 -4 -17 -24 -45 -11 -52 24 -5 24 -10 29 -31 27
-20 -2 -27 2 -30 17 -9 56 -13 65 -32 65 -24 0 -24 0 -5 36 11 21 11 30 3 35
-15 9 -30 1 -23 -12 4 -5 -3 -9 -13 -9 -11 0 -22 7 -26 15 -8 21 -34 19 -48
-5 -16 -26 -38 -26 -38 0 0 11 7 20 15 20 8 0 15 7 15 15 0 18 -9 19 -46 5
-20 -8 -31 -7 -43 3 -9 8 -32 19 -51 25 -49 14 -388 14 -411 -1 -15 -9 -24 -9
-39 1 -23 14 -149 15 -310 3 -58 -5 -107 -5 -110 -2 -9 11 -59 12 -78 2 -17
-9 -47 -5 -137 18 -22 5 -78 11 -124 12 -64 1 -93 7 -118 21 -18 11 -33 25
-33 30 0 6 18 27 40 46 39 35 138 70 203 71 16 1 37 6 49 12 11 6 47 15 80 19
32 5 77 18 99 29 22 12 47 21 55 21 9 0 28 7 42 15 15 8 46 22 69 30 96 34
131 48 198 77 39 17 86 39 106 49 20 11 43 19 51 19 9 0 26 10 39 23 13 12 42
35 65 50 60 41 106 92 105 119 -1 49 -8 72 -30 89 -18 15 -21 25 -16 51 8 44
38 108 49 108 6 0 19 9 30 19 27 25 99 16 104 -12 5 -23 -27 -59 -45 -53 -7 3
-13 0 -13 -6 0 -7 -9 -22 -21 -34 l-21 -22 21 -12 c21 -11 28 -10 186 32 22 6
52 19 67 29 14 11 32 19 40 19 8 0 25 11 37 24 13 13 34 27 47 30 13 4 24 10
24 15 0 5 15 23 32 40 24 24 29 34 20 40 -9 5 -12 25 -10 57 3 44 5 49 29 52
17 2 31 12 38 29 8 17 17 23 27 19 10 -4 35 10 68 38 39 34 55 42 68 35 18
-10 62 2 73 21 6 9 10 9 16 -1 8 -12 11 -11 19 1 15 23 12 51 -7 65 -14 11
-12 14 15 26 18 8 32 16 33 19 0 3 2 13 4 22 2 10 0 17 -3 17 -21 -3 -23 3 -6
16 18 14 18 14 -3 8 -14 -3 -23 -1 -23 6 0 6 12 13 28 17 15 3 35 8 45 11 12
3 17 -1 17 -16 0 -12 -4 -21 -10 -21 -5 0 -10 -9 -10 -20 0 -27 16 -25 42 5
12 14 28 25 36 25 7 0 12 8 10 18 -2 12 -14 18 -41 20 -45 4 -49 22 -4 22 17
0 41 8 52 16 19 15 17 16 -25 10 -43 -7 -44 -6 -28 10 10 11 36 19 63 20 57 4
131 38 138 64 3 11 12 20 21 20 9 0 16 5 16 10 0 21 31 9 40 -15 8 -22 13 -24
30 -15 12 6 24 18 27 26 3 9 17 20 30 25 14 5 27 17 30 27 2 9 21 27 41 40 20
13 48 38 62 57 14 19 35 38 48 44 12 6 31 30 41 53 10 24 28 52 40 62 11 11
21 28 21 39 0 11 10 35 21 54 20 31 21 44 15 126 -15 218 -24 295 -40 336 -20
54 -20 54 4 48 24 -6 34 21 26 67 -5 28 -2 34 24 49 29 18 41 47 19 47 -20 0
-49 -21 -49 -36 0 -8 -8 -17 -17 -21 -64 -21 -92 -40 -98 -64 -3 -15 -15 -36
-27 -49 l-21 -22 -24 28 c-16 19 -22 35 -18 49 3 11 9 38 12 61 4 33 11 44 39
59 18 10 36 27 40 37 3 11 33 49 66 86 32 36 66 79 75 96 22 42 85 126 96 126
4 0 19 -11 32 -25 37 -36 34 -94 -10 -189 -41 -89 -42 -101 -15 -116 16 -8 27
-7 50 7 17 9 30 20 30 24 0 18 66 69 91 69 34 0 96 -26 102 -42 2 -7 8 -9 13
-5 4 4 -3 18 -17 30 -14 12 -34 47 -44 77 -10 30 -25 66 -34 79 -20 31 -19
119 1 152 10 15 20 74 27 159 6 74 16 176 22 227 6 51 7 112 4 135 -5 35 -2
49 17 78 22 32 27 35 69 32 24 -2 64 -12 88 -23 24 -10 48 -19 54 -19 5 0 28
-9 51 -19 23 -11 85 -38 139 -61 54 -23 129 -57 167 -76 38 -19 73 -34 78 -34
13 0 43 36 36 42 -3 3 4 25 16 48 21 41 23 42 58 35 20 -4 43 -11 49 -17 7 -6
22 -8 33 -5 13 3 25 -2 34 -14 11 -16 29 -21 81 -24 73 -5 111 -23 124 -58 9
-24 7 -122 -4 -179 -8 -41 -11 -37 163 -148 31 -20 58 -42 60 -50 5 -16 29
-33 49 -36 12 -2 104 -62 113 -74 3 -3 26 -20 51 -38 26 -17 49 -38 52 -47 4
-8 12 -15 18 -15 14 0 268 -257 307 -310 14 -19 38 -48 53 -65 14 -16 35 -49
45 -72 10 -24 21 -43 26 -43 4 0 8 -8 8 -17 0 -10 9 -29 20 -43 11 -14 20 -32
20 -41 0 -9 7 -22 15 -29 8 -7 15 -23 15 -36 0 -13 4 -24 9 -24 5 0 11 -21 15
-47 7 -50 27 -118 39 -129 4 -4 7 -27 7 -50 0 -23 5 -55 11 -71 20 -50 34
-195 32 -332 l-1 -134 -35 -32 c-26 -24 -34 -38 -30 -54 7 -26 12 -26 30 -3
12 15 13 12 7 -23 -4 -22 -15 -46 -26 -53 -10 -7 -18 -18 -18 -24 0 -6 -7 -16
-16 -22 -10 -8 -15 -29 -16 -66 0 -43 -6 -60 -24 -80 -22 -24 -24 -37 -29
-159 -3 -74 -9 -139 -13 -145 -4 -6 -9 -38 -12 -71 -4 -51 -8 -60 -25 -60 -14
0 -21 -9 -26 -35 -5 -21 -3 -37 3 -41 7 -5 7 -22 0 -56 -6 -27 -9 -59 -6 -70
3 -11 1 -24 -5 -27 -7 -4 -11 1 -11 13 0 12 -4 21 -8 21 -4 0 -8 -55 -8 -122
0 -68 -6 -150 -12 -183 -6 -33 -17 -107 -25 -165 -9 -71 -17 -104 -25 -102 -7
1 -12 -4 -13 -10 -4 -91 -7 -121 -18 -168 -14 -62 -15 -202 -1 -264 17 -76 30
-212 31 -317 1 -60 7 -121 15 -144 19 -55 17 -116 -3 -145 -11 -15 -18 -46
-19 -81 -1 -54 -8 -81 -39 -154 -19 -44 -35 -99 -35 -119 0 -9 -5 -27 -12 -39
-7 -12 -13 -29 -14 -37 -5 -28 -27 -95 -36 -105 -4 -5 -8 -19 -8 -31 0 -12
-13 -37 -29 -57 -15 -20 -31 -55 -35 -78 -5 -31 -17 -51 -46 -78 -44 -40 -51
-61 -20 -61 27 0 25 -15 -6 -56 -20 -25 -25 -40 -20 -60 7 -25 5 -26 -20 -21
-22 4 -35 -3 -71 -42 -31 -33 -46 -42 -52 -33 -5 9 -13 6 -31 -13 -18 -20 -21
-27 -11 -39 10 -12 10 -20 0 -37 l-12 -23 -18 23 -19 23 0 -21 c0 -12 -4 -20
-9 -17 -18 11 -40 -6 -47 -37 -4 -18 -9 -27 -11 -21 -2 6 -17 9 -33 6 -20 -3
-27 -8 -23 -18 4 -11 9 -12 19 -3 16 13 54 2 54 -16 0 -18 -13 -26 -29 -16
-13 8 -89 -13 -106 -30 -6 -6 -3 -22 10 -45 16 -30 17 -37 4 -45 -7 -5 -22 -9
-32 -9 -11 0 -35 -8 -54 -17 -33 -15 -38 -15 -64 -1 -33 19 -40 15 -33 -22 6
-26 -18 -90 -34 -90 -4 0 -29 -18 -55 -39 -32 -27 -53 -37 -67 -34 -22 6 -28
-15 -8 -35 20 -20 -8 -41 -48 -35 -38 6 -77 -18 -68 -42 4 -9 -10 -15 -45 -20
-47 -6 -50 -9 -53 -38 -3 -36 -31 -45 -36 -11 -2 17 -11 21 -42 22 -44 2 -64
-20 -62 -69 0 -23 -4 -28 -26 -31 -21 -2 -28 -9 -30 -30 -3 -27 -25 -38 -37
-18 -3 6 -17 10 -31 10 -14 0 -37 13 -55 31 -35 36 -51 33 -80 -16 -23 -38
-29 -41 -47 -23 -9 9 -17 5 -37 -16 -15 -16 -32 -25 -40 -22 -8 3 -14 0 -12
-6 1 -7 -7 -14 -18 -16 -11 -2 -29 -13 -39 -25 -18 -18 -20 -19 -26 -3 -5 16
-7 16 -30 -2 l-23 -19 20 -34 c26 -44 18 -77 -25 -102 -33 -19 -33 -19 -56 2
-29 27 -42 27 -62 -4 -9 -14 -20 -25 -26 -25 -5 0 -22 -10 -38 -21 -21 -16
-43 -22 -84 -22 -44 0 -57 -3 -61 -17 -4 -12 -12 -16 -25 -13 -11 3 -26 -2
-34 -10 -10 -9 -46 -18 -95 -22 -81 -7 -126 -1 -116 16 4 5 0 9 -8 9 -8 0 -20
-13 -27 -30 -15 -35 -33 -38 -54 -9 -14 21 -17 21 -58 7 -99 -35 -114 -41
-133 -51 -11 -6 -27 -13 -35 -17 -8 -4 -44 -22 -79 -39 -35 -17 -71 -31 -80
-31 -10 0 -22 -5 -28 -11 -7 -7 -24 -13 -39 -15 -15 -1 -41 -9 -58 -17 -17 -8
-44 -21 -61 -28 -100 -46 -202 -123 -197 -150 2 -13 -2 -16 -16 -12 -22 5 -33
-7 -37 -43 -1 -14 -7 -30 -13 -36 -7 -7 -7 -17 0 -33 14 -31 3 -72 -22 -80
-13 -4 -19 -14 -18 -28 2 -19 -32 -104 -62 -159 -6 -10 -10 -27 -10 -38 0 -11
-6 -20 -13 -20 -9 0 -14 -14 -14 -42 -1 -56 -77 -221 -110 -239 -12 -7 -25
-20 -28 -30 -8 -23 -78 -56 -140 -65 -27 -4 -66 -12 -85 -18 -19 -6 -50 -10
-68 -8 -50 5 -68 42 -76 160 -4 53 -11 133 -15 177 -4 44 -4 118 0 165 5 62 3
92 -7 111 -20 40 -103 127 -127 134 -12 3 -31 10 -42 14 -11 5 -33 14 -48 20
-62 25 -264 7 -447 -39 -19 -5 -65 -11 -102 -14 -38 -3 -76 -9 -85 -15 -10 -5
-58 -12 -108 -16 -133 -9 -233 -23 -279 -39 -23 -7 -81 -17 -129 -20 -49 -4
-100 -11 -113 -16 -13 -5 -63 -12 -112 -14 -156 -9 -396 -27 -417 -31 -11 -2
-90 -7 -175 -10 -85 -3 -231 -10 -325 -16 -93 -6 -345 -9 -560 -7 -214 1 -418
1 -452 0 -34 -1 -65 3 -68 8 -3 6 -32 10 -63 10 -31 0 -104 4 -162 10 -58 5
-154 13 -215 16 -60 3 -126 8 -145 10 -137 14 -211 24 -250 34 -25 6 -92 15
-150 20 -58 6 -125 15 -150 21 -46 11 -106 21 -240 39 -97 13 -153 25 -171 35
-8 5 -39 13 -69 17 -133 18 -321 66 -344 87 -19 18 -29 21 -56 14 -44 -12
-140 7 -140 27 -1 12 -3 12 -14 -2 -13 -18 -66 -25 -66 -9 0 11 -48 24 -60 16
-20 -12 10 -45 40 -45 21 0 39 -10 61 -35 18 -19 40 -35 49 -35 10 0 29 -9 43
-20 14 -11 29 -20 33 -20 4 0 22 -11 40 -25 18 -14 37 -25 42 -25 6 0 23 -13
39 -30 24 -26 35 -30 80 -30 41 0 53 -4 53 -15 0 -9 -11 -21 -25 -27 -20 -9
-28 -8 -43 5 -26 24 -42 21 -42 -7 0 -15 11 -33 28 -45 l27 -21 -24 -20 c-25
-22 -21 -35 14 -42 11 -2 20 -10 20 -18 1 -27 72 -89 112 -96 50 -9 56 -13 43
-29 -16 -19 -6 -32 29 -40 16 -3 37 -17 45 -31 11 -16 26 -24 46 -24 35 0 36
-4 11 -37 -31 -38 -7 -86 39 -77 32 7 70 -10 70 -31 0 -9 5 -24 12 -34 11 -18
13 -18 23 -4 16 21 45 10 45 -17 0 -11 6 -23 13 -26 20 -7 67 13 74 33 7 19
28 43 37 43 3 0 3 -28 -1 -61 l-6 -62 29 6 c21 4 35 0 51 -15 l22 -20 27 21
c33 26 55 27 77 1 13 -16 24 -19 60 -14 33 5 51 2 71 -11 15 -10 29 -15 33
-12 3 4 19 -1 35 -9 23 -12 36 -13 60 -5 33 12 58 1 58 -24 0 -16 23 -25 65
-25 18 0 35 -5 37 -11 4 -13 96 -20 104 -8 2 4 29 5 59 2 45 -5 55 -3 55 9 0
15 30 48 44 48 5 0 6 -10 3 -22 -4 -12 1 -34 10 -49 14 -23 22 -27 45 -22 16
3 35 0 44 -8 10 -8 18 -9 22 -3 10 14 85 11 89 -3 3 -7 17 -10 38 -6 24 4 39
1 50 -11 10 -9 26 -14 38 -11 25 6 62 -19 52 -34 -3 -6 1 -11 9 -11 9 0 22 13
30 28 8 15 25 33 38 39 20 9 28 7 50 -12 17 -15 45 -24 87 -29 33 -4 63 -11
66 -16 4 -6 -1 -10 -9 -10 -19 0 -27 -13 -17 -29 7 -10 18 -7 49 13 53 33 62
33 62 -3 0 -26 3 -29 44 -33 57 -7 124 -38 128 -61 5 -28 22 -21 31 12 4 17
12 31 17 31 6 0 10 7 10 16 0 8 5 12 11 9 6 -4 8 -13 5 -21 -3 -9 1 -14 14
-14 28 0 34 -18 8 -22 -17 -2 -23 -10 -24 -30 -1 -15 3 -33 7 -40 6 -9 9 -4 9
15 0 23 5 29 30 33 17 4 30 12 30 20 0 24 17 23 73 -4 47 -23 56 -31 57 -54 0
-31 3 -33 48 -43 28 -6 32 -4 32 14 0 20 12 27 35 21 6 -2 17 -3 25 -4 23 -3
70 -37 70 -51 0 -7 14 -18 31 -24 26 -9 29 -13 20 -30 -7 -13 -17 -17 -31 -14
-11 3 -20 1 -21 -3 0 -5 -2 -20 -3 -33 -2 -13 2 -27 8 -32 6 -5 25 -20 42 -34
37 -29 82 -33 91 -7 4 9 15 23 25 30 10 7 18 20 18 28 0 23 74 14 78 -10 2
-10 -4 -19 -15 -22 -28 -8 -21 -84 9 -84 6 0 8 10 4 26 -6 22 -4 25 16 22 18
-2 24 -10 26 -36 3 -31 15 -38 59 -33 16 2 4 -82 -13 -92 -21 -12 -17 -48 6
-54 23 -6 27 -33 5 -33 -8 0 -15 -5 -15 -11 0 -7 -11 -9 -32 -5 -62 12 -72 11
-76 -7 -3 -15 0 -18 17 -12 17 5 21 2 21 -15 0 -13 -5 -20 -12 -17 -15 5 -48
-10 -48 -22 0 -4 11 -13 25 -19 47 -22 30 -38 -37 -37 -56 1 -64 3 -75 25 -22
45 -58 47 -86 2 -4 -6 -16 -12 -27 -12 -10 0 -27 -12 -39 -27 l-20 -28 -26 27
c-30 33 -16 32 -340 17 -263 -13 -733 -13 -1005 -1 -102 5 -203 8 -225 8 -22
0 -92 3 -156 8 -129 9 -151 2 -142 -48 6 -32 -6 -33 -31 -5 -17 20 -25 21 -99
16 -51 -4 -86 -12 -97 -22 -11 -10 -27 -14 -41 -10 -43 10 -141 14 -329 14
-324 -1 -320 -1 -389 60 -33 29 -36 30 -120 26 -98 -4 -235 16 -260 39 -9 9
-26 13 -38 10 -11 -3 -32 1 -44 9 -26 15 -144 38 -299 57 -52 7 -112 19 -133
27 -28 11 -44 13 -60 6 -25 -12 -195 -1 -272 17 -52 12 -118 25 -195 39 -129
24 -167 33 -185 41 -11 4 -45 16 -75 25 -30 10 -63 21 -72 26 -10 5 -26 9 -36
9 -10 0 -27 7 -38 15 -10 8 -31 15 -46 15 -16 0 -28 5 -28 10 0 6 -9 10 -19
10 -11 0 -22 4 -25 9 -3 4 -29 11 -58 14 -29 3 -66 12 -83 21 -16 9 -47 19
-67 22 -21 4 -38 10 -38 15 0 5 -19 8 -42 7 -41 -1 -41 -2 -8 -5 38 -4 137
-73 106 -73 -10 0 -14 -5 -11 -10 4 -6 11 -8 16 -4 6 3 26 3 45 -1 29 -5 36
-11 41 -36 6 -31 50 -60 62 -41 3 5 21 12 39 15 28 6 34 3 41 -16 5 -12 19
-32 31 -45 17 -18 19 -26 10 -37 -16 -19 0 -40 35 -49 14 -4 31 -19 39 -35 13
-23 24 -29 64 -35 43 -6 53 -11 77 -46 15 -22 25 -46 22 -54 -7 -18 41 -32 56
-17 36 36 36 -24 0 -61 -33 -35 -51 -36 -59 -3 -4 18 -13 25 -30 25 -13 0 -24
-4 -24 -9 0 -21 31 -65 57 -82 27 -18 91 -19 1912 -19 1729 0 1882 1 1870 16
-11 14 -10 18 6 30 31 23 55 17 66 -16 l11 -30 276 0 c257 0 275 1 247 16 -53
28 -55 58 -3 68 55 11 100 -38 66 -72 -9 -9 813 -12 3630 -12 l3642 0 0 7090
0 7090 -1677 -2 -1677 -3 -7 -35 c-21 -117 -30 -217 -33 -385 -3 -104 -7 -206
-11 -225 -10 -44 -47 -96 -84 -115 -26 -13 -30 -13 -44 3 -32 37 -36 123 -20
545 l8 217 -224 0 c-187 0 -222 -2 -218 -14 3 -8 1 -59 -4 -114 -5 -54 -11
-227 -12 -383 -3 -247 -6 -291 -22 -338 -16 -45 -25 -56 -54 -68 -20 -7 -43
-18 -51 -23 -25 -16 -59 -30 -92 -35 -23 -4 -39 1 -64 20 -19 14 -34 32 -34
40 0 8 -10 21 -22 30 -23 15 -26 44 -18 175 6 99 -8 488 -18 507 -15 26 -16
70 -2 78 6 3 10 33 10 66 l0 59 -789 0 -788 0 1 -202 c0 -112 0 -237 0 -278
-1 -41 -1 -93 -1 -115 0 -22 -1 -121 -3 -220 -3 -129 0 -191 10 -219 8 -26 11
-66 7 -120 -5 -72 -8 -83 -32 -104 -48 -41 -103 -2 -129 91 -15 53 -31 552
-31 980 l0 187 -607 0 -606 0 4 -87 c3 -49 7 -95 10 -103 3 -8 8 -123 10 -255
2 -132 9 -337 15 -455 15 -295 13 -418 -9 -448 -22 -31 -157 -102 -192 -102
-15 0 -41 7 -56 15 -16 8 -37 15 -46 15 -9 0 -29 5 -45 11 -43 18 -103 19
-161 2 -66 -20 -139 -8 -134 21 2 10 -6 25 -17 33 -15 10 -19 21 -15 38 3 13
1 39 -5 57 -6 18 -13 139 -16 268 -3 147 -11 267 -21 319 -16 89 -23 243 -24
509 l0 162 -308 0 -307 0 7 -122z m4500 -942 c13 -25 16 -81 22 -450 5 -261 4
-281 -14 -322 -11 -24 -20 -49 -20 -57 0 -27 -35 -45 -105 -52 -44 -4 -80 -14
-98 -27 -22 -16 -36 -18 -69 -13 -83 14 -100 61 -97 275 2 219 -8 470 -21 484
-10 13 -8 17 14 27 14 7 27 17 28 23 0 6 2 16 2 23 2 23 50 63 85 72 20 5 65
12 101 16 36 3 76 12 89 19 31 17 69 9 83 -18z m1743 -108 c-6 -43 -14 -59
-43 -86 -20 -19 -44 -38 -54 -43 -10 -5 -18 -16 -18 -24 0 -8 -7 -15 -15 -15
-8 0 -15 7 -15 15 0 8 4 15 10 15 5 0 7 13 3 30 -5 27 1 36 62 95 38 36 70 65
73 65 2 0 1 -24 -3 -52z m-1761 -1087 c27 -15 32 -25 40 -77 6 -32 9 -90 9
-129 -1 -38 -4 -248 -8 -465 -6 -446 -12 -624 -20 -658 -3 -13 -1 -30 6 -38 7
-8 9 -25 4 -41 -12 -49 -26 -147 -26 -183 0 -44 -23 -70 -63 -70 -48 1 -66 20
-59 63 5 35 4 37 -20 37 -14 0 -32 3 -41 6 -10 4 -19 -1 -23 -14 -8 -20 -8
-20 -35 3 -23 19 -26 31 -29 91 -2 38 0 74 4 80 12 20 11 117 -2 199 -21 130
-25 173 -25 305 -1 69 -5 131 -9 138 -5 6 -5 32 -1 57 5 35 3 45 -7 45 -12 0
-12 2 -1 9 12 7 11 14 -2 39 -9 17 -13 38 -9 48 4 10 0 22 -11 29 -19 15 -21
53 -13 265 8 184 8 184 41 219 23 24 37 29 96 34 38 3 77 10 85 14 27 15 86
12 119 -6z m-1770 -92 c-4 -6 -11 -6 -20 2 -21 17 -17 31 6 19 11 -6 18 -15
14 -21z m-242 -21 c-9 -9 -12 -7 -12 12 0 19 3 21 12 12 9 -9 9 -15 0 -24z
m3698 -669 c10 -35 9 -50 -5 -86 -10 -25 -23 -47 -31 -50 -8 -3 -14 -14 -14
-24 0 -12 -7 -19 -18 -19 -10 0 -23 -5 -30 -12 -15 -15 -15 -8 -2 27 7 18 7
33 -1 47 -14 25 5 75 32 83 13 4 19 16 19 34 0 57 35 56 50 0z m83 -584 c15
-13 27 -27 27 -30 0 -3 15 -24 32 -47 31 -38 33 -44 32 -119 -1 -55 -6 -86
-18 -104 -17 -25 -20 -26 -86 -19 -96 9 -111 3 -154 -62 -36 -54 -38 -55 -57
-38 -22 20 -25 47 -5 63 7 6 16 25 20 41 3 17 17 55 31 85 14 31 25 61 25 68
0 7 7 22 15 33 8 10 15 32 15 47 0 33 56 107 79 107 9 0 28 -12 44 -25z
m-1957 -256 c3 -6 -1 -18 -10 -27 -15 -15 -16 -14 -16 11 0 27 13 36 26 16z
m202 -371 c22 -28 34 -157 27 -290 -4 -73 -11 -141 -16 -150 -5 -9 -6 -24 -3
-33 4 -9 -1 -34 -11 -55 -16 -35 -23 -40 -61 -46 -24 -3 -50 -4 -59 -1 -8 4
-17 2 -21 -4 -3 -6 -19 -7 -36 -4 -23 5 -35 2 -55 -17 l-26 -23 6 52 c4 38 2
55 -9 63 -10 9 -14 34 -14 84 0 39 -4 77 -9 85 -6 9 -4 32 5 62 8 26 13 69 11
96 -5 62 16 93 62 93 23 0 34 6 42 24 11 23 76 56 111 56 9 0 20 5 23 10 8 14
20 13 33 -2z m-1689 -84 c36 -7 40 -19 10 -27 -25 -7 -89 18 -68 26 20 8 23 8
58 1z m11 -69 c0 -8 -7 -15 -15 -15 -9 0 -12 6 -9 15 4 8 10 15 15 15 5 0 9
-7 9 -15z m4593 -126 c21 -5 52 -23 70 -39 27 -24 30 -32 21 -47 -23 -37 -155
-44 -222 -12 -71 35 -67 64 13 93 49 18 69 19 118 5z m-5369 -919 c20 -7 26
-17 26 -39 0 -16 5 -33 10 -36 14 -9 12 -25 -3 -25 -8 0 -25 -9 -38 -21 -16
-14 -31 -18 -47 -14 -17 4 -37 -2 -64 -20 -50 -33 -88 -30 -106 8 -11 24 -11
34 4 72 24 65 40 73 171 83 12 1 33 -2 47 -8z m195 -134 c19 -20 25 -42 32
-118 19 -195 45 -1179 32 -1223 -9 -27 -14 -30 -58 -33 -61 -4 -95 4 -95 23 0
10 -11 15 -35 15 -19 0 -35 5 -35 10 0 6 5 10 11 10 6 0 8 9 4 20 -5 17 0 23
25 31 50 18 71 71 72 187 0 53 1 129 2 167 2 104 -14 496 -20 506 -3 5 -5 82
-5 171 -1 117 -5 173 -15 197 -11 25 -11 37 -3 47 18 22 63 17 88 -10z m2866
-191 c7 -22 20 -85 30 -140 32 -184 38 -197 114 -230 44 -20 70 -19 93 2 10 9
34 22 52 28 28 10 37 9 56 -5 21 -15 22 -23 17 -69 -4 -30 -2 -51 3 -51 6 0
10 5 10 11 0 6 9 23 21 37 15 20 19 35 14 59 -5 29 -3 33 15 33 43 0 63 -47
39 -91 -5 -11 -12 -38 -15 -60 -5 -38 -3 -40 31 -54 30 -13 35 -20 35 -50 0
-18 5 -37 10 -40 19 -12 10 -42 -15 -53 -14 -6 -25 -18 -25 -27 0 -9 -8 -14
-22 -12 -19 2 -23 -4 -30 -43 -13 -80 -23 -105 -44 -104 -42 2 -122 14 -137
20 -23 8 -21 53 2 78 19 20 19 23 4 70 -15 44 -17 47 -25 26 -5 -12 -7 -34 -6
-48 3 -29 -25 -44 -35 -18 -7 18 11 86 22 86 8 0 24 55 26 87 0 6 4 15 8 19 4
4 7 27 7 51 0 39 -2 44 -19 38 -13 -4 -25 2 -38 21 -24 32 -44 24 -41 -16 3
-46 -59 -100 -115 -100 -14 0 -41 -7 -61 -15 -20 -8 -48 -15 -64 -14 -15 1
-51 -1 -81 -5 -43 -7 -53 -6 -49 5 3 8 19 15 37 17 26 3 33 8 38 33 4 22 11
29 29 29 29 0 84 79 86 124 0 17 -9 51 -22 76 -21 42 -22 53 -17 166 9 171 33
220 62 129z m-4585 5 c13 -8 13 -10 -2 -10 -9 0 -20 5 -23 10 -8 13 5 13 25 0z
m-74 -185 c10 -9 12 -23 8 -40 -7 -30 -25 -40 -51 -31 -12 5 -14 9 -5 18 7 7
12 25 12 40 0 31 14 36 36 13z m5217 -135 c3 -14 1 -20 -6 -17 -7 2 -14 14
-15 26 -4 28 13 20 21 -9z m-3599 -192 c7 -31 13 -289 8 -310 -6 -29 -27 -21
-45 17 -13 27 -17 64 -17 156 0 66 5 129 10 140 14 26 39 24 44 -3z m2516
-158 c0 -5 -7 -10 -15 -10 -8 0 -15 5 -15 10 0 6 7 10 15 10 8 0 15 -4 15 -10z
m1190 -1 c0 -9 -17 -47 -25 -57 -2 -2 -12 2 -24 10 l-21 13 23 22 c24 23 47
30 47 12z m-2415 -124 c7 -5 16 -39 19 -73 l7 -64 -33 7 c-43 10 -50 14 -44
30 3 8 -4 17 -15 20 -16 6 -19 12 -14 36 4 19 3 29 -5 29 -9 0 -10 11 -5 38
11 61 24 67 52 24 14 -20 31 -41 38 -47z m1923 42 c18 -14 16 -61 -3 -53 -8 3
-29 0 -47 -6 -24 -9 -33 -8 -36 0 -2 7 -10 12 -17 12 -19 0 -27 17 -20 39 5
15 15 19 58 18 29 0 58 -4 65 -10z m390 -15 c2 -7 -6 -12 -17 -12 -21 0 -27
11 -14 24 9 9 26 2 31 -12z m-5085 -27 c7 -16 -8 -29 -23 -20 -15 9 -12 35 4
35 8 0 16 -7 19 -15z m4733 -43 c11 -8 13 -91 1 -109 -11 -18 -52 6 -64 38 -8
22 -16 26 -32 22 -12 -3 -21 -13 -21 -25 0 -35 -35 -17 -37 19 -1 24 4 32 20
37 37 10 57 7 57 -9 0 -8 6 -15 13 -15 19 0 36 20 30 36 -5 15 15 19 33 6z
m103 -58 c-16 -20 -29 -17 -29 5 0 14 5 18 20 14 16 -4 18 -8 9 -19z m-3359
-194 c0 -5 -4 -10 -10 -10 -5 0 -10 5 -10 10 0 6 5 10 10 10 6 0 10 -4 10 -10z
m-5 -30 c3 -5 -1 -10 -10 -10 -9 0 -13 5 -10 10 3 6 8 10 10 10 2 0 7 -4 10
-10z m1803 -784 c5 -56 -15 -94 -56 -112 -42 -17 -50 -11 -63 45 -18 79 7 113
81 108 33 -2 35 -4 38 -41z m-2908 -586 c8 -5 11 -10 5 -10 -5 0 -17 5 -25 10
-8 5 -10 10 -5 10 6 0 17 -5 25 -10z m3155 -150 c3 -5 -1 -10 -9 -10 -9 0 -16
5 -16 10 0 6 4 10 9 10 6 0 13 -4 16 -10z m413 -18 c2 -13 -8 -34 -27 -54 -17
-18 -31 -28 -32 -23 -6 82 -4 94 16 98 31 6 40 2 43 -21z m62 -72 c0 -5 -2
-10 -4 -10 -3 0 -8 5 -11 10 -3 6 -1 10 4 10 6 0 11 -4 11 -10z m75 0 c-3 -5
-16 -10 -28 -10 -18 0 -19 2 -7 10 20 13 43 13 35 0z m-1478 -257 c4 -9 1 -19
-5 -21 -7 -2 -12 -12 -12 -22 0 -15 -18 -30 -36 -30 -11 0 -2 56 13 72 20 22
32 23 40 1z m-27 -143 c13 -8 13 -10 -2 -10 -9 0 -20 5 -23 10 -8 13 5 13 25
0z m366 -95 c4 -8 3 -26 0 -40 -6 -23 -9 -24 -28 -14 -17 9 -23 9 -26 0 -4
-11 -32 -16 -32 -5 0 13 55 73 68 73 7 1 15 -6 18 -14z m4124 -1631 c0 -8 -5
-12 -10 -9 -6 4 -8 11 -5 16 9 14 15 11 15 -7z m-497 -679 c15 -13 27 -28 27
-34 0 -12 -62 -33 -71 -24 -6 7 -13 55 -10 76 2 14 26 6 54 -18z m-183 -30 c0
-20 -5 -25 -24 -25 l-24 0 21 25 c27 31 27 31 27 0z m-316 -34 c3 -5 -1 -14
-9 -21 -13 -10 -15 -9 -15 9 0 21 14 28 24 12z m359 -53 c26 1 137 -42 137
-53 0 -3 -4 -13 -9 -23 -5 -9 -12 -25 -15 -36 -5 -14 -12 -17 -34 -11 -15 4
-77 8 -138 10 -61 1 -119 7 -130 12 -10 6 -24 9 -30 6 -16 -5 -64 15 -64 27 0
5 7 10 15 10 8 0 15 7 15 15 0 22 17 18 23 -5 6 -23 37 -27 37 -5 0 18 39 35
79 35 16 0 34 7 41 15 8 10 20 13 29 9 9 -4 29 -7 44 -6z m-843 -218 c0 -5 -4
-10 -10 -10 -5 0 -10 5 -10 10 0 6 5 10 10 10 6 0 10 -4 10 -10z m-105 -50 c3
-5 1 -10 -4 -10 -6 0 -11 5 -11 10 0 6 2 10 4 10 3 0 8 -4 11 -10z m661 -25
c30 -30 49 -33 34 -6 -13 25 7 33 36 14 21 -13 54 -9 54 8 0 15 42 10 62 -8
21 -19 24 -53 4 -53 -19 0 -40 -26 -26 -35 20 -12 10 -23 -27 -27 -21 -3 -46
-8 -55 -12 -14 -6 -17 -3 -15 21 1 15 9 31 17 35 8 5 -5 5 -30 2 -25 -3 -50
-12 -56 -20 -15 -19 -34 -17 -62 4 -19 15 -21 21 -12 51 16 56 38 64 76 26z
m-426 -220 c135 -9 259 -33 300 -58 19 -12 38 -22 41 -22 12 0 135 -106 160
-137 26 -33 52 -114 43 -130 -7 -11 -37 -3 -95 27 l-46 24 8 -37 c4 -20 10
-47 14 -58 4 -12 2 -25 -4 -28 -18 -11 -13 -34 9 -41 16 -5 20 -15 20 -51 0
-36 -6 -51 -30 -77 -16 -18 -30 -36 -30 -40 0 -21 -46 -70 -93 -100 -67 -43
-104 -56 -148 -56 -21 1 -46 -2 -57 -5 -15 -5 -25 0 -37 18 -9 13 -31 29 -48
36 -27 9 -34 8 -44 -6 -7 -9 -10 -21 -7 -25 3 -5 -5 -9 -18 -8 -13 0 -54 0
-91 -1 -59 -2 -71 -5 -93 -28 -43 -47 -8 -86 36 -42 21 21 23 21 68 5 116 -42
345 -47 394 -8 7 6 31 16 53 23 39 13 105 43 135 61 19 12 50 26 73 33 12 4
17 16 17 40 0 35 19 53 38 34 13 -13 -3 -55 -30 -79 -10 -10 -22 -29 -27 -43
-6 -15 -30 -36 -58 -51 -26 -14 -77 -41 -111 -60 -35 -19 -68 -32 -74 -29 -5
3 -17 -1 -26 -9 -18 -15 -52 -28 -87 -33 -11 -1 -65 -11 -120 -23 -166 -33
-276 -36 -465 -11 -91 12 -181 23 -200 24 -65 5 -258 74 -280 100 -6 9 -43 30
-81 48 -38 18 -72 40 -75 50 -3 10 -10 18 -15 18 -5 0 -26 16 -48 35 -21 19
-43 35 -48 35 -11 0 -24 44 -28 94 -2 21 2 30 16 33 10 3 19 10 19 17 0 6 14
55 32 109 32 99 32 99 120 182 70 66 110 94 191 134 115 58 258 103 332 106
28 1 113 3 190 4 77 2 149 7 160 11 11 5 27 7 35 5 8 -2 58 -7 110 -10z
m-1225 -521 c6 -34 1 -54 -10 -42 -3 3 -9 22 -12 42 -7 48 13 48 22 0z m-5980
-370 c16 -24 16 -26 -1 -39 -16 -11 -21 -9 -37 11 -15 20 -17 28 -7 39 17 21
25 19 45 -11z m1500 -134 c20 -39 19 -50 -5 -50 -22 0 -80 26 -80 36 0 3 5 14
10 25 17 30 57 24 75 -11z m-789 -44 c31 -24 7 -37 -43 -23 -48 12 -55 23 -20
30 39 8 43 7 63 -7z m4294 -116 c8 -15 21 -20 50 -20 22 0 40 4 40 9 0 9 53
31 75 31 15 0 75 -60 75 -74 0 -6 -13 -18 -29 -28 -49 -27 -65 -117 -35 -203
16 -48 16 -105 1 -116 -5 -4 7 -16 26 -28 32 -19 49 -22 148 -20 98 1 114 -1
126 -17 26 -35 13 -84 -23 -84 -12 0 -27 -7 -32 -16 -6 -12 -18 -15 -36 -12
-30 6 -39 -2 -25 -22 6 -10 9 -11 9 -2 0 7 15 12 39 12 23 0 44 6 51 15 17 20
116 17 113 -2 -2 -7 2 -13 7 -13 17 0 11 -27 -7 -34 -9 -4 -51 -6 -93 -5 -42
1 -86 -3 -97 -10 -12 -6 -33 -11 -47 -11 -14 0 -27 -4 -30 -9 -10 -16 -69 -18
-107 -3 -45 17 -69 60 -69 121 0 23 -3 41 -7 41 -4 0 -20 -12 -35 -27 -28 -26
-28 -27 -60 -9 -77 40 -83 48 -81 106 2 49 16 121 24 126 18 11 9 44 -11 44
-16 0 -19 -7 -19 -42 1 -40 -6 -94 -17 -126 -3 -10 -9 -8 -25 7 -19 18 -21 26
-15 90 7 67 6 71 -18 87 -38 24 -98 112 -94 137 2 13 12 23 23 25 11 2 41 26
66 53 41 43 51 49 87 49 31 0 44 -5 52 -20z m-2710 -175 c0 -8 -4 -15 -10 -15
-5 0 -10 7 -10 15 0 8 5 15 10 15 6 0 10 -7 10 -15z m70 -49 c0 -3 -4 -8 -10
-11 -5 -3 -10 -1 -10 4 0 6 5 11 10 11 6 0 10 -2 10 -4z m150 -116 c0 -5 -4
-10 -10 -10 -5 0 -10 5 -10 10 0 6 5 10 10 10 6 0 10 -4 10 -10z m67 -74 c15
4 14 3 -2 -7 -11 -7 -25 -19 -31 -27 -16 -21 -44 -7 -44 21 0 33 10 39 36 22
13 -8 31 -12 41 -9z m-5070 -122 c-3 -3 -12 -4 -19 -1 -8 3 -5 6 6 6 11 1 17
-2 13 -5z m8223 -2 c0 -4 -7 -18 -16 -30 -13 -18 -19 -21 -30 -11 -8 6 -14 20
-14 30 0 14 7 19 30 19 17 0 30 -3 30 -8z m-2848 -363 c17 -40 15 -69 -4 -69
-9 0 -69 33 -87 47 -7 5 51 63 63 63 6 0 19 -18 28 -41z m-2470 -84 c2 -12
-49 -31 -58 -22 -4 3 -4 13 0 22 6 18 55 18 58 0z m2078 -15 c-11 -21 -22 -25
-33 -13 -9 9 12 33 30 33 11 0 11 -4 3 -20z"/>
<path d="M12361 2451 c-17 -11 -7 -41 13 -41 21 0 27 15 13 33 -8 11 -17 14
-26 8z"/>
<path d="M11165 1946 c-51 -23 -87 -70 -92 -118 -4 -30 -1 -49 9 -59 7 -8 21
-27 31 -42 34 -53 176 -127 299 -156 26 -6 53 -8 60 -6 25 10 49 151 42 238
-4 43 -12 81 -17 84 -6 4 -25 8 -41 9 -77 8 -106 17 -111 34 -4 13 -15 18 -38
18 -18 0 -50 2 -72 6 -26 4 -51 1 -70 -8z"/>
<path d="M12060 1759 c0 -64 12 -99 34 -99 43 0 64 98 26 122 -11 7 -20 18
-20 25 0 7 -9 13 -20 13 -18 0 -20 -7 -20 -61z"/>
<path d="M11990 1651 c0 -5 -16 -19 -34 -32 -19 -13 -40 -34 -45 -46 -14 -31
3 -29 23 2 13 19 25 25 55 25 35 0 38 2 38 30 0 22 -5 30 -19 30 -10 0 -18 -4
-18 -9z"/>
<path d="M9602 987 c-19 -23 -42 -85 -42 -113 0 -15 7 -36 17 -46 15 -17 17
-15 35 35 20 54 23 99 9 124 -6 12 -9 12 -19 0z"/>
<path d="M9746 585 c-3 -8 -1 -15 4 -15 6 0 10 7 10 15 0 8 -2 15 -4 15 -2 0
-6 -7 -10 -15z"/>
<path d="M1965 13680 c-16 -4 -62 -8 -101 -9 -42 -1 -84 -7 -100 -16 -16 -8
-49 -15 -74 -15 -25 0 -63 -5 -86 -10 -22 -5 -119 -16 -215 -24 -96 -9 -275
-25 -399 -36 -124 -10 -254 -22 -290 -25 -131 -11 -196 -16 -235 -20 -22 -2
-136 -9 -252 -16 l-213 -13 0 -99 0 -99 73 5 c74 5 165 14 482 47 185 20 254
26 410 35 50 3 131 10 180 15 50 5 180 14 290 19 110 6 252 16 316 22 107 10
182 7 364 -16 25 -3 55 22 55 46 0 10 -10 30 -22 46 -22 27 -50 80 -62 115 -6
19 -64 59 -81 57 -5 -1 -23 -5 -40 -9z"/>
<path d="M2290 13350 c-21 -11 -189 -40 -236 -40 -35 0 -123 -14 -259 -41 -27
-5 -84 -11 -125 -13 -41 -2 -109 -8 -150 -14 -168 -25 -318 -42 -373 -42 -32
0 -88 -4 -125 -10 -37 -5 -103 -12 -147 -14 -175 -10 -353 -26 -404 -36 -29
-5 -90 -10 -135 -10 -44 0 -138 -3 -208 -7 l-128 -6 0 -2145 0 -2145 26 -23
c30 -29 44 -30 75 -5 13 10 32 17 42 15 11 -1 17 4 17 16 0 11 12 22 31 29 48
16 61 14 59 -11 -5 -62 8 -77 28 -33 16 34 31 32 82 -14 30 -27 41 -44 37 -55
-7 -18 15 -32 33 -21 8 5 8 11 -1 21 -29 35 26 61 62 28 14 -13 20 -13 39 -2
17 11 20 19 15 46 -9 47 8 62 65 62 34 0 50 4 54 16 4 10 16 15 33 13 16 -1
36 1 45 5 30 13 39 -3 34 -60 l-5 -54 64 0 c35 0 67 5 70 10 9 15 37 12 32 -2
-2 -7 2 -21 11 -30 14 -16 13 -20 -1 -36 -10 -10 -17 -23 -17 -29 0 -6 -32
-23 -71 -37 -39 -15 -83 -35 -97 -46 -13 -11 -30 -20 -38 -20 -7 0 -25 -10
-41 -23 -15 -12 -50 -33 -78 -47 -49 -23 -211 -125 -290 -181 -22 -16 -65 -45
-95 -65 -30 -20 -92 -62 -137 -92 l-83 -56 0 -273 c0 -243 2 -273 16 -273 9 0
18 9 21 20 6 22 24 25 54 10 27 -15 23 -49 -11 -90 -17 -19 -30 -44 -30 -56 0
-35 -21 -84 -36 -84 -12 0 -14 -74 -14 -475 0 -261 2 -475 5 -475 6 0 100 66
138 97 23 18 32 21 49 12 15 -8 24 -7 38 6 10 9 24 14 29 10 21 -12 22 24 3
68 -15 34 -21 78 -26 193 -4 82 -8 156 -9 164 -1 8 2 49 6 90 5 41 11 100 13
130 3 30 12 66 19 80 7 14 11 37 8 51 -3 16 1 30 11 38 10 8 16 29 16 55 0 49
56 168 121 256 28 39 79 141 79 158 0 7 6 12 13 12 8 0 19 11 25 25 10 22 47
65 137 159 16 17 54 59 85 92 30 34 98 97 150 140 52 43 104 87 115 97 21 20
202 161 240 187 12 8 48 32 81 54 32 21 70 46 83 55 29 20 54 35 232 142 182
110 450 246 554 283 44 16 114 45 155 66 41 21 100 48 130 60 141 56 219 96
220 111 0 9 -7 36 -17 60 -12 33 -16 72 -14 154 2 89 -2 123 -19 180 -27 86
-25 228 4 285 31 58 100 160 110 160 5 0 17 7 27 16 16 14 19 14 34 -9 24 -37
36 -86 36 -144 -1 -54 30 -134 79 -203 32 -47 43 -53 58 -33 16 23 15 48 -3
63 -11 10 -13 25 -9 67 5 41 2 70 -15 121 -12 37 -28 92 -36 122 -11 41 -31
74 -78 130 -91 108 -149 242 -151 349 -1 46 4 63 28 99 16 23 32 42 36 42 4 0
12 -11 18 -25 7 -16 17 -23 27 -19 12 5 14 0 9 -25 -5 -25 -2 -36 18 -54 14
-13 27 -30 30 -38 3 -8 9 -11 13 -7 4 4 -4 26 -17 50 -21 35 -27 67 -37 178
-15 167 -16 168 -41 145 -26 -24 -47 -13 -53 27 -3 18 -7 42 -9 53 -2 17 3 20
34 20 43 0 52 7 43 34 -8 27 -22 27 -30 1 -9 -28 -25 -25 -25 5 0 14 4 25 8
25 5 0 15 11 22 25 12 22 11 27 -13 49 -14 13 -28 22 -31 19 -2 -3 -10 15 -16
38 -6 24 -13 49 -15 56 -2 6 7 14 21 17 14 4 24 14 24 24 0 10 5 23 12 30 8 8
8 12 1 12 -6 0 -13 14 -17 30 -3 17 -17 42 -31 56 -14 14 -25 29 -25 33 0 5
-7 14 -15 21 -8 7 -15 25 -15 41 0 15 -4 31 -10 34 -5 3 -10 23 -10 43 -1 20
-7 64 -15 97 -39 165 -44 197 -44 261 1 38 -4 82 -10 97 -6 16 -11 40 -11 55
0 15 -18 63 -41 107 -36 71 -41 92 -49 180 -5 55 -5 119 -1 142 9 46 9 50 -20
198 -39 195 -59 321 -57 357 1 35 -28 95 -71 146 -21 24 -28 25 -51 12z m403
-1833 c-3 -5 -10 -4 -15 1 -6 6 -7 16 -3 22 6 9 9 9 16 -1 4 -7 5 -17 2 -22z
m44 -339 c-3 -8 -6 -5 -6 6 -1 11 2 17 5 13 3 -3 4 -12 1 -19z m-2567 -3278
c30 -15 40 -27 40 -44 0 -34 23 -48 74 -45 58 4 76 -12 74 -63 -2 -54 -40 -98
-68 -80 -11 7 -34 12 -52 12 -25 0 -39 8 -58 31 -14 18 -38 48 -55 67 -24 28
-30 44 -28 78 3 71 11 76 73 44z m-82 -182 c-3 -7 -15 -14 -29 -16 -24 -4 -24
-3 -4 12 24 19 38 20 33 4z"/>
<path d="M4472 13339 c1 -12 9 -24 16 -27 9 -3 13 3 10 19 -1 12 -9 24 -16 27
-9 3 -13 -3 -10 -19z"/>
<path d="M4500 13280 c-29 -18 -6 -324 25 -350 11 -9 16 -6 21 15 10 40 -4
248 -18 256 -7 4 -9 21 -5 43 6 39 -1 50 -23 36z"/>
<path d="M2766 12931 c-4 -7 -5 -15 -2 -18 9 -9 19 4 14 18 -4 11 -6 11 -12 0z"/>
<path d="M2708 12854 c-9 -8 3 -44 13 -38 11 7 12 44 1 44 -5 0 -11 -3 -14 -6z"/>
<path d="M2710 12518 c0 -33 14 -50 38 -46 20 3 19 5 -9 36 -27 30 -29 31 -29
10z"/>
<path d="M5798 12388 c-3 -7 5 -20 16 -29 17 -14 18 -19 7 -33 -7 -9 -20 -16
-27 -16 -8 0 -14 -4 -14 -10 0 -10 13 -14 37 -11 16 2 43 -38 36 -54 -2 -8 5
-18 16 -25 25 -13 26 -27 5 -51 -18 -20 -11 -54 13 -63 24 -9 25 -4 13 65 -6
35 -13 78 -15 94 -3 17 -7 42 -9 57 -2 14 -13 35 -25 47 -12 12 -21 26 -21 31
0 14 -28 12 -32 -2z"/>
<path d="M5735 12380 c-3 -5 1 -10 9 -10 9 0 16 5 16 10 0 6 -4 10 -9 10 -6 0
-13 -4 -16 -10z"/>
<path d="M5677 12333 c-15 -14 -6 -23 23 -23 17 0 30 5 30 11 0 5 -5 7 -10 4
-6 -4 -17 -2 -24 4 -7 6 -16 8 -19 4z"/>
<path d="M5686 12241 c-3 -5 0 -14 8 -20 10 -8 16 -8 25 3 9 11 8 15 -5 20
-20 8 -22 8 -28 -3z"/>
<path d="M2639 12176 c6 -7 14 -34 17 -59 6 -42 11 -49 50 -72 51 -30 64 -31
64 -5 0 12 -7 20 -16 20 -19 0 -51 33 -60 64 -4 11 -18 31 -31 44 -26 24 -42
30 -24 8z"/>
<path d="M5790 12061 c-15 -28 -13 -33 13 -29 14 2 23 11 25 26 4 28 -23 30
-38 3z"/>
<path d="M5880 12040 c-7 -22 -20 -40 -27 -40 -12 0 -12 -2 0 -15 9 -8 18 -20
20 -27 8 -19 28 12 23 34 -2 10 0 21 5 24 11 7 12 51 0 58 -4 3 -14 -13 -21
-34z"/>
<path d="M2951 11873 c0 -80 6 -163 14 -198 23 -102 25 -117 31 -215 3 -52 11
-113 18 -135 9 -25 17 -113 21 -234 3 -107 13 -231 21 -275 7 -45 16 -121 20
-171 8 -142 18 -167 86 -230 32 -30 66 -55 75 -55 9 0 39 -15 67 -34 59 -39
117 -61 138 -54 11 5 13 27 10 114 -3 60 -4 150 -3 199 3 115 -17 439 -30 486
-5 20 -12 92 -15 160 -14 324 -36 543 -55 555 -5 3 -9 14 -9 25 0 10 -4 19 -9
19 -6 0 -21 11 -35 24 -17 15 -34 22 -48 19 -15 -3 -64 19 -141 61 -173 96
-157 102 -156 -61z"/>
<path d="M2730 11935 c0 -18 5 -25 20 -25 23 0 24 4 10 31 -15 27 -30 24 -30
-6z"/>
<path d="M5675 11911 c3 -6 12 -11 19 -11 8 0 19 -7 26 -15 16 -19 40 -19 40
-1 0 18 -6 22 -53 30 -27 5 -37 4 -32 -3z"/>
<path d="M5883 11913 c-10 -3 -9 -9 3 -20 12 -13 20 -14 41 -4 14 6 24 14 22
16 -7 7 -54 12 -66 8z"/>
<path d="M5827 11878 c21 -36 46 -43 51 -14 2 11 0 16 -6 12 -6 -4 -14 0 -19
7 -4 7 -16 17 -26 20 -18 7 -18 6 0 -25z"/>
<path d="M7725 11789 c-4 -6 -5 -12 -2 -15 2 -3 7 2 10 11 7 17 1 20 -8 4z"/>
<path d="M2730 11670 c0 -5 5 -10 10 -10 6 0 10 5 10 10 0 6 -4 10 -10 10 -5
0 -10 -4 -10 -10z"/>
<path d="M2756 11585 c-6 -18 2 -45 15 -45 5 0 9 14 9 30 0 32 -14 40 -24 15z"/>
<path d="M2725 11580 c-3 -5 -1 -10 4 -10 6 0 11 5 11 10 0 6 -2 10 -4 10 -3
0 -8 -4 -11 -10z"/>
<path d="M5850 11575 c-8 -9 -30 -15 -56 -15 -24 0 -44 -4 -44 -10 0 -15 -21
-12 -41 6 -19 17 -39 12 -39 -11 0 -13 -29 -30 -37 -21 -2 2 1 13 8 25 18 28
5 37 -34 23 -19 -7 -44 -12 -58 -12 -29 -1 -59 -22 -59 -42 0 -20 50 -30 57
-12 8 20 23 17 23 -5 0 -23 17 -31 54 -24 35 7 32 -16 -3 -33 -16 -8 -19 -14
-11 -19 17 -11 60 15 60 36 0 24 9 28 48 22 19 -3 32 -11 32 -20 0 -10 -6 -13
-16 -9 -8 3 -12 2 -9 -4 3 -6 1 -10 -6 -10 -13 0 -49 -38 -49 -52 0 -17 38 -7
64 17 15 14 31 25 36 25 15 0 6 -64 -10 -76 -8 -7 -14 -25 -15 -40 0 -18 -5
-28 -12 -26 -15 2 -17 -24 -3 -33 15 -9 12 -51 -4 -68 -8 -7 -16 -25 -18 -38
-2 -18 -10 -25 -30 -27 -29 -3 -36 -20 -18 -38 6 -6 12 -24 13 -40 3 -31 22
-36 22 -6 0 22 67 161 77 162 15 0 21 -54 9 -87 -7 -18 -9 -42 -6 -53 4 -13 2
-20 -7 -20 -9 0 -12 -13 -10 -50 3 -31 -2 -61 -12 -82 -15 -28 -15 -33 -1 -40
8 -5 15 -18 15 -28 0 -10 5 -22 11 -25 6 -4 -7 -23 -31 -45 -37 -34 -41 -42
-35 -69 8 -38 19 -46 38 -26 20 19 43 19 50 0 7 -16 -8 -29 -22 -20 -5 3 -12
1 -16 -5 -3 -5 -1 -10 4 -10 6 0 11 -6 11 -14 0 -8 14 -24 30 -36 30 -21 32
-47 3 -36 -23 9 -63 -5 -63 -21 0 -11 8 -14 30 -11 19 3 31 0 35 -10 8 -23 6
-32 -8 -26 -8 3 -20 -2 -27 -11 -10 -12 -10 -18 0 -30 7 -9 19 -14 26 -11 7 3
15 -1 18 -9 2 -7 13 -15 23 -18 10 -2 4 -3 -14 -1 -43 4 -57 -15 -45 -60 6
-19 7 -37 4 -40 -3 -3 2 -14 12 -25 17 -19 15 -32 -19 -91 -8 -14 -15 -44 -15
-67 0 -30 -4 -43 -14 -43 -25 0 -36 24 -27 58 7 23 6 32 -5 36 -10 4 -12 14
-8 32 6 22 4 25 -12 22 -26 -5 -36 -70 -15 -101 9 -12 14 -30 13 -40 -2 -10 2
-24 8 -32 12 -15 5 -39 -9 -30 -5 2 -16 -4 -25 -14 -16 -17 -16 -21 -1 -59 9
-22 23 -43 31 -46 9 -3 13 -10 10 -15 -3 -5 15 -19 42 -32 44 -22 58 -24 210
-23 135 1 166 4 181 18 9 9 27 16 39 16 12 0 22 4 22 9 0 13 -29 41 -41 41 -6
0 -4 9 4 21 18 25 2 67 -28 71 -16 2 -20 11 -20 41 0 26 -6 42 -17 48 -12 6
-18 22 -18 43 0 19 -7 39 -15 46 -11 9 -12 17 -4 31 6 13 6 19 -1 19 -6 0 -8
26 -3 74 5 60 3 78 -9 90 -20 19 -21 88 -3 122 13 26 11 47 -8 72 -7 9 -7 16
1 24 6 6 8 16 6 23 -3 7 6 22 20 33 14 11 26 23 26 26 0 17 -38 46 -62 46 -34
0 -46 18 -22 35 11 7 30 22 44 34 l25 22 -40 -3 c-34 -3 -40 0 -40 17 0 13 8
21 22 23 28 4 35 24 20 56 -12 26 -27 35 -27 15 0 -5 -4 -7 -10 -4 -5 3 -10
33 -10 66 0 40 -5 65 -15 75 -8 9 -15 24 -15 35 0 10 7 19 15 19 9 0 15 10 15
26 0 14 5 35 11 46 8 16 7 27 -6 52 -15 27 -16 46 -11 107 7 70 10 77 42 103
21 17 43 26 54 23 11 -3 24 1 31 9 6 8 16 11 21 8 11 -7 1 35 -11 49 -13 14
-71 26 -71 15 0 -6 -13 -8 -36 -4 -25 5 -43 2 -61 -9 -24 -16 -26 -16 -47 4
-26 25 -39 26 -56 6z m-60 -306 c0 -6 -4 -7 -10 -4 -5 3 -10 11 -10 16 0 6 5
7 10 4 6 -3 10 -11 10 -16z m75 -59 c3 -5 1 -10 -4 -10 -6 0 -11 5 -11 10 0 6
2 10 4 10 3 0 8 -4 11 -10z m-8 -726 c-3 -3 -12 -4 -19 -1 -8 3 -5 6 6 6 11 1
17 -2 13 -5z m-37 -533 c0 -5 -7 -14 -16 -22 -13 -10 -17 -10 -25 2 -14 23
-11 29 16 29 14 0 25 -4 25 -9z"/>
<path d="M6232 11569 c2 -7 10 -15 17 -17 8 -3 12 1 9 9 -2 7 -10 15 -17 17
-8 3 -12 -1 -9 -9z"/>
<path d="M5275 11560 c3 -5 10 -10 16 -10 5 0 9 5 9 10 0 6 -7 10 -16 10 -8 0
-12 -4 -9 -10z"/>
<path d="M5415 11559 c-10 -15 -2 -19 23 -12 12 3 19 9 16 14 -7 12 -31 11
-39 -2z"/>
<path d="M6170 11541 c-7 -13 -7 -22 0 -26 13 -8 30 3 30 20 0 23 -18 27 -30
6z"/>
<path d="M2770 11319 c0 -10 2 -19 4 -19 2 0 12 -3 21 -6 13 -5 16 -2 13 16
-4 29 -38 37 -38 9z"/>
<path d="M5638 11252 c-18 -3 -25 -37 -10 -45 4 -3 21 -8 38 -11 29 -7 30 -6
26 23 -4 29 -22 40 -54 33z"/>
<path d="M5622 10998 c-7 -7 -12 -24 -12 -40 0 -17 -7 -31 -20 -38 -29 -15
-25 -40 5 -40 14 0 25 -4 25 -10 0 -5 7 -10 15 -10 8 0 15 7 15 15 0 9 -6 12
-15 9 -9 -4 -15 0 -15 9 0 9 14 17 40 21 44 7 58 24 41 53 -10 17 -10 17 -11
1 0 -28 -21 -21 -33 12 -13 33 -17 36 -35 18z"/>
<path d="M5680 10845 c0 -8 5 -15 10 -15 6 0 10 7 10 15 0 8 -4 15 -10 15 -5
0 -10 -7 -10 -15z"/>
<path d="M5630 10812 c0 -13 -5 -33 -11 -44 -16 -29 5 -47 23 -19 7 11 18 21
25 21 7 0 13 7 13 15 0 8 7 15 16 15 8 0 12 5 9 10 -9 14 -45 13 -45 -2 0 -6
-7 -3 -15 8 -14 18 -14 18 -15 -4z"/>
<path d="M5652 10688 c-7 -7 -12 -19 -12 -29 0 -12 6 -15 25 -11 32 6 40 19
25 37 -15 18 -22 19 -38 3z"/>
<path d="M5641 10595 c-1 -17 8 -42 20 -57 19 -24 24 -25 47 -15 l26 12 -28 5
c-29 5 -34 11 -54 60 l-11 25 0 -30z"/>
<path d="M5680 10355 c0 -36 14 -60 29 -51 16 11 13 31 -9 57 l-19 24 -1 -30z"/>
<path d="M3100 10065 c-8 -26 -8 -39 1 -56 23 -43 41 -145 44 -241 3 -102 7
-118 31 -118 11 0 13 -6 9 -20 -7 -21 9 -50 26 -50 5 0 9 6 9 14 0 19 19 24
45 12 23 -11 51 -86 32 -86 -5 0 1 -8 14 -19 32 -25 83 -35 109 -21 17 9 25 7
47 -10 20 -16 29 -18 40 -8 16 13 14 59 -7 158 -6 30 -11 60 -11 65 0 6 2 41
5 79 l5 70 -51 48 c-28 26 -54 48 -58 48 -4 0 -27 16 -51 35 -24 19 -48 35
-52 35 -11 0 -71 43 -80 58 -10 15 -61 42 -81 42 -8 0 -20 -16 -26 -35z"/>
<path d="M2782 9704 c-28 -19 -29 -63 -3 -153 10 -36 19 -90 20 -120 1 -30 5
-71 11 -90 5 -20 10 -61 11 -91 1 -30 10 -94 20 -141 10 -47 21 -133 25 -190
6 -104 8 -124 18 -209 9 -76 38 -150 59 -150 10 0 1 105 -13 158 -5 19 -5 32
1 32 16 0 11 146 -6 160 -8 7 -15 21 -15 31 0 9 -6 24 -14 31 -7 8 -17 24 -21
37 -5 18 -2 24 15 28 22 6 23 8 16 117 -4 61 -11 115 -15 121 -5 5 -7 23 -5
40 2 16 -1 34 -7 41 -5 6 -10 82 -12 170 l-2 158 -31 18 c-27 16 -32 16 -52 2z"/>
<path d="M5728 9422 c-33 -2 -48 -7 -48 -17 0 -19 43 -42 48 -27 2 7 16 -2 32
-19 17 -19 30 -27 34 -20 4 6 18 11 32 11 19 0 24 -5 24 -26 0 -25 -2 -26 -35
-20 -28 6 -35 4 -35 -9 0 -8 -4 -15 -9 -15 -9 0 -12 -39 -4 -78 2 -15 10 -23
21 -21 9 1 23 1 30 0 16 -1 16 -58 0 -63 -7 -3 6 -8 28 -11 24 -4 44 -14 48
-22 3 -10 2 -13 -5 -10 -21 13 4 -46 32 -76 16 -17 27 -34 24 -39 -2 -4 7 -18
20 -30 14 -13 25 -34 25 -48 0 -25 0 -25 48 -5 8 3 12 -4 12 -21 0 -19 -6 -27
-25 -32 -14 -3 -25 -10 -25 -14 0 -12 57 -20 91 -13 17 3 34 2 38 -4 3 -5 22
-20 41 -33 19 -13 41 -33 49 -43 9 -13 21 -17 39 -14 36 7 52 -2 52 -27 0 -28
10 -39 24 -27 6 5 28 14 49 20 20 7 42 21 47 32 9 16 6 21 -15 31 -21 9 -25
17 -20 35 6 24 1 27 -47 23 -48 -3 -167 138 -159 188 1 8 -5 22 -13 31 -14 15
-15 28 -6 82 6 35 10 76 10 90 0 15 7 32 15 39 11 9 12 17 3 33 -9 18 -7 23
11 35 13 9 21 25 21 43 0 21 5 29 18 29 10 0 27 6 37 14 18 13 17 14 -8 30
-22 15 -58 18 -264 19 -131 1 -259 1 -285 -1z m230 -160 c2 -7 -3 -12 -12 -12
-9 0 -16 7 -16 16 0 17 22 14 28 -4z m-63 -12 c-3 -5 -10 -10 -16 -10 -5 0 -9
5 -9 10 0 6 7 10 16 10 8 0 12 -4 9 -10z m223 -90 l24 -12 -22 -15 c-19 -13
-28 -14 -62 -2 -48 16 -56 31 -33 65 l17 26 26 -25 c15 -13 38 -30 50 -37z
m-238 30 c0 -5 -6 -10 -14 -10 -8 0 -18 5 -21 10 -3 6 3 10 14 10 12 0 21 -4
21 -10z"/>
<path d="M5720 9321 c0 -5 5 -13 10 -16 6 -3 10 -2 10 4 0 5 -4 13 -10 16 -5
3 -10 2 -10 -4z"/>
<path d="M5772 9119 c1 -13 8 -23 13 -21 15 3 12 35 -3 40 -9 3 -13 -3 -10
-19z"/>
<path d="M3156 9097 c-26 -19 -30 -96 -11 -181 9 -38 13 -81 10 -97 -3 -15 -1
-30 4 -34 17 -10 13 -37 -9 -65 -26 -34 -27 -60 -2 -36 18 15 21 15 49 -11 34
-31 47 -59 33 -68 -6 -4 -10 -17 -10 -30 0 -17 5 -23 20 -22 10 1 17 3 15 6
-3 2 0 10 5 16 10 12 25 197 23 280 -2 67 -32 189 -51 202 -9 7 -26 21 -37 33
-18 17 -23 18 -39 7z"/>
<path d="M3787 9053 c-4 -6 0 -19 8 -29 11 -15 14 -16 15 -4 0 21 -16 44 -23
33z"/>
<path d="M3794 8989 c-7 -11 4 -167 13 -182 3 -4 9 -52 13 -105 8 -91 14 -133
26 -191 4 -19 8 -21 14 -11 12 20 1 224 -17 310 -15 71 -17 87 -21 160 -2 30
-15 39 -28 19z"/>
<path d="M2723 8949 c-6 -6 -22 -16 -34 -23 -13 -6 -31 -26 -42 -44 -16 -27
-16 -32 -4 -32 9 0 19 9 22 20 9 28 51 27 59 -2 8 -33 26 -10 28 36 1 41 -12
62 -29 45z"/>
<path d="M5800 8941 c0 -5 5 -13 10 -16 6 -3 10 -2 10 4 0 5 -4 13 -10 16 -5
3 -10 2 -10 -4z"/>
<path d="M720 8871 c0 -5 7 -14 15 -21 13 -10 15 -9 15 9 0 12 -6 21 -15 21
-8 0 -15 -4 -15 -9z"/>
<path d="M2487 8812 c-10 -10 -17 -23 -17 -29 0 -17 -22 -21 -52 -9 -19 7 -33
6 -50 -2 -144 -77 -175 -92 -188 -92 -8 0 -42 -25 -75 -56 -33 -31 -76 -62
-95 -70 -22 -9 -40 -26 -48 -44 -8 -17 -20 -30 -28 -30 -9 0 -14 -11 -13 -32
2 -61 -15 -96 -32 -65 -14 25 -36 21 -43 -8 -7 -28 -27 -32 -46 -10 -17 20
-33 19 -55 -5 -22 -24 -23 -23 44 -39 44 -11 55 -11 62 0 9 16 119 23 119 9 0
-6 9 -10 20 -10 11 0 20 5 20 10 0 6 -9 10 -20 10 -16 0 -20 7 -20 33 0 18 -5
38 -11 44 -12 12 -4 33 11 33 5 0 19 -20 30 -44 11 -24 25 -46 31 -48 9 -3 9
-9 0 -26 -10 -19 -9 -23 14 -34 14 -6 25 -15 25 -20 0 -20 -34 -57 -61 -67
-19 -6 -29 -17 -29 -29 0 -23 -25 -36 -47 -23 -11 6 -12 10 -4 15 20 13 12 23
-14 18 -14 -2 -25 -9 -25 -14 0 -6 -14 -7 -37 -3 -21 4 -47 7 -57 7 -11 -1
-28 4 -39 10 -16 8 -22 7 -29 -6 -10 -18 -78 -23 -78 -6 0 19 -49 10 -60 -11
-7 -11 -28 -27 -47 -35 -31 -14 -35 -18 -29 -44 3 -19 0 -34 -9 -44 -8 -8 -15
-27 -15 -43 0 -16 -9 -36 -20 -46 -26 -22 -25 -45 2 -74 18 -19 20 -26 10 -45
-12 -24 -11 -65 1 -86 6 -8 14 -8 32 0 14 6 25 15 25 20 0 4 7 8 15 8 9 0 18
-13 22 -31 5 -27 9 -30 32 -24 14 3 34 6 44 6 9 0 27 13 39 30 12 16 27 29 34
29 6 0 17 6 23 14 6 8 33 19 59 26 26 6 61 20 78 31 17 10 41 19 52 19 11 0
42 9 69 21 26 11 72 25 102 29 31 6 59 17 66 27 13 17 15 17 45 -1 27 -15 36
-16 55 -6 23 12 23 13 5 44 -19 33 -43 185 -34 211 14 37 190 135 241 135 51
0 81 -38 52 -67 -6 -6 -11 -31 -11 -57 0 -25 -3 -46 -8 -46 -5 0 -15 -6 -22
-13 -7 -7 -25 -18 -40 -24 -31 -14 -39 -56 -14 -70 8 -4 30 -27 49 -50 27 -33
36 -39 41 -27 4 11 14 14 27 11 26 -7 33 11 19 48 -9 25 -7 31 26 63 33 32 37
34 62 21 15 -7 30 -15 35 -17 4 -2 7 3 7 11 0 10 7 13 20 10 40 -10 74 17 96
76 28 77 41 119 49 164 6 35 3 41 -29 71 -20 18 -39 46 -42 64 -7 37 -26 55
-73 71 -30 10 -37 9 -55 -8 -25 -23 -92 -36 -101 -21 -4 6 -17 10 -28 8 -31
-4 -47 9 -47 38 0 13 -5 24 -10 24 -6 0 -18 16 -27 35 -11 23 -24 35 -37 35
-31 0 -13 9 29 15 37 4 54 19 82 73 10 19 10 26 -1 38 -19 19 -30 18 -49 -4z
m-43 -195 c20 -25 26 -41 20 -47 -7 -7 -17 -3 -30 10 -10 12 -29 32 -42 45
-16 17 -19 24 -10 28 21 8 30 3 62 -36z m-354 -241 c0 -3 -4 -8 -10 -11 -5 -3
-10 -1 -10 4 0 6 5 11 10 11 6 0 10 -2 10 -4z m438 -330 c3 -12 -1 -17 -10
-14 -7 3 -15 13 -16 22 -3 12 1 17 10 14 7 -3 15 -13 16 -22z m-736 -28 c-16
-16 -37 4 -28 28 6 16 8 16 23 1 13 -13 15 -19 5 -29z m-52 12 c0 -5 14 -22
30 -37 25 -22 30 -32 25 -55 -6 -23 -3 -28 19 -34 14 -3 26 -9 26 -11 0 -13
-37 -32 -62 -33 -22 0 -29 6 -34 28 -11 53 -27 82 -43 82 -17 0 -41 18 -41 31
0 4 7 15 16 23 17 18 64 22 64 6z m-200 -200 c0 -5 -4 -10 -10 -10 -5 0 -10 5
-10 10 0 6 5 10 10 10 6 0 10 -4 10 -10z"/>
<path d="M5075 8777 c-27 -5 -64 -16 -82 -23 -17 -8 -37 -14 -45 -14 -7 0 -26
-8 -42 -18 -28 -17 -29 -20 -33 -114 -2 -61 0 -105 7 -118 8 -16 8 -25 0 -35
-8 -10 -3 -19 20 -38 29 -25 30 -28 21 -69 -6 -24 -12 -80 -15 -126 -4 -71 -9
-86 -28 -102 -36 -30 -50 -21 -29 19 9 16 2 47 -41 203 -6 20 -7 57 -4 83 5
31 3 51 -5 61 -7 8 -13 47 -14 86 -2 70 -2 71 32 90 40 24 43 41 6 32 -31 -7
-55 -22 -94 -56 -26 -23 -26 -23 -18 -123 4 -55 13 -134 19 -175 5 -41 15
-138 20 -215 5 -77 15 -198 22 -270 7 -71 12 -157 11 -190 -1 -34 4 -63 10
-67 7 -4 10 -38 8 -94 l-2 -86 38 7 c74 14 88 33 57 81 -14 20 -16 40 -10 117
4 58 3 104 -4 121 -7 19 -7 33 0 47 14 26 35 24 58 -6 29 -37 42 -253 17 -291
-22 -34 -16 -39 119 -97 67 -29 85 -26 93 14 3 16 10 32 14 35 14 8 11 40 -5
53 -8 7 -14 33 -15 62 0 28 -8 65 -16 82 -8 16 -15 38 -15 48 0 10 -4 20 -8
23 -11 7 -12 339 -2 357 5 7 5 20 1 28 -5 9 -11 60 -15 114 -6 94 -5 99 14
104 27 7 35 44 21 96 -16 57 -21 75 -28 121 -3 22 -14 54 -24 70 -11 17 -19
38 -19 47 0 26 28 31 44 7 23 -32 36 -12 36 57 0 72 -3 75 -75 62z"/>
<path d="M108 8753 c7 -3 16 -2 19 1 4 3 -2 6 -13 5 -11 0 -14 -3 -6 -6z"/>
<path d="M485 8730 c-3 -5 3 -10 15 -10 12 0 18 5 15 10 -3 6 -10 10 -15 10
-5 0 -12 -4 -15 -10z"/>
<path d="M3160 8630 c0 -6 -12 -15 -27 -21 -31 -12 -17 -35 15 -25 19 6 38 56
21 56 -5 0 -9 -5 -9 -10z"/>
<path d="M5127 8617 c-11 -29 -9 -43 4 -30 6 6 9 19 7 29 -3 18 -4 18 -11 1z"/>
<path d="M11947 8547 c-3 -9 1 -21 9 -27 11 -10 14 -10 14 1 0 8 -4 20 -9 27
-7 11 -9 11 -14 -1z"/>
<path d="M3090 8425 c0 -30 5 -55 10 -55 6 0 10 -33 10 -78 0 -42 4 -91 9
-107 10 -35 132 -165 155 -165 12 0 15 11 15 50 -1 28 -5 53 -9 55 -5 3 -6 14
-3 24 3 10 0 22 -6 25 -16 11 -13 46 4 46 18 0 19 23 3 50 -13 20 -1 54 31 93
14 17 14 20 -2 32 -9 6 -17 17 -17 22 0 6 -12 19 -27 28 -25 17 -27 17 -40 -1
-7 -10 -12 -23 -9 -30 2 -6 0 -17 -5 -25 -13 -21 -43 2 -47 37 -5 38 -19 54
-48 54 -22 0 -24 -4 -24 -55z m120 -180 c0 -7 9 -17 20 -20 31 -10 25 -28 -7
-20 -34 8 -55 35 -41 52 12 15 28 8 28 -12z"/>
<path d="M6420 8441 c0 -23 14 -41 30 -41 25 0 35 18 20 35 -14 16 -50 20 -50
6z"/>
<path d="M3068 8384 c-12 -11 -9 -82 3 -89 17 -11 18 -3 11 49 -4 26 -10 44
-14 40z"/>
<path d="M6302 8360 c-12 -12 -22 -25 -22 -31 0 -5 10 -1 22 11 12 11 25 20
30 20 4 0 8 5 8 10 0 16 -14 12 -38 -10z"/>
<path d="M6378 8363 c-20 -5 -23 -14 -7 -30 7 -7 -5 -24 -40 -55 l-50 -45 26
-23 c24 -21 27 -21 38 -6 7 9 17 16 23 16 5 0 13 7 16 16 4 10 13 13 26 9 26
-8 26 6 0 28 -24 20 -26 40 -5 57 8 7 15 19 15 26 0 14 -10 16 -42 7z"/>
<path d="M6245 8299 c-8 -23 -1 -34 14 -24 13 8 15 45 2 45 -5 0 -13 -9 -16
-21z"/>
<path d="M1801 8257 c-32 -16 -27 -29 15 -44 59 -20 88 9 42 41 -27 19 -27 19
-57 3z"/>
<path d="M5805 8251 c-3 -5 -1 -12 5 -16 5 -3 10 1 10 9 0 18 -6 21 -15 7z"/>
<path d="M1410 8200 c0 -15 -71 -80 -107 -97 -19 -9 -32 -21 -30 -27 6 -15 67
-9 96 11 17 11 26 13 29 5 2 -7 8 -12 13 -12 4 0 7 24 5 53 -3 28 0 58 6 65 7
8 7 12 -1 12 -6 0 -11 -4 -11 -10z"/>
<path d="M5780 7958 c0 -7 5 -20 10 -28 8 -12 10 -11 10 7 0 12 -4 25 -10 28
-5 3 -10 0 -10 -7z"/>
<path d="M2577 7935 c-14 -10 -13 -12 4 -23 11 -7 26 -9 34 -4 13 6 12 10 -3
23 -15 13 -22 14 -35 4z"/>
<path d="M3022 7913 c-7 -3 -19 -20 -27 -39 -7 -18 -39 -58 -69 -88 -49 -49
-54 -58 -47 -83 4 -15 3 -48 -2 -72 -7 -31 -6 -50 2 -63 6 -10 11 -34 11 -53
0 -19 5 -35 10 -35 6 0 10 -9 10 -20 0 -11 -4 -20 -10 -20 -16 0 -12 -40 5
-46 8 -4 15 -18 15 -34 0 -74 50 -162 65 -115 15 49 15 48 30 35 20 -17 30
-79 16 -101 -6 -11 -11 -27 -11 -38 0 -22 -39 -49 -185 -126 -60 -32 -121 -66
-135 -75 -14 -9 -45 -27 -70 -39 -39 -20 -138 -83 -250 -157 -19 -13 -60 -46
-89 -74 -30 -27 -62 -50 -71 -50 -18 0 -88 -66 -225 -215 -55 -59 -108 -116
-117 -126 -9 -10 -25 -30 -35 -46 -10 -15 -28 -36 -41 -46 -12 -11 -34 -41
-48 -69 -14 -27 -41 -64 -60 -80 -51 -45 -168 -287 -169 -348 0 -52 15 -68 26
-28 8 30 143 271 163 291 8 7 16 22 20 32 3 11 33 47 67 80 33 33 69 74 80 91
11 18 26 35 34 38 8 3 15 11 15 18 0 15 203 208 219 208 6 0 11 4 11 9 0 5 21
31 48 58 26 26 55 60 65 75 9 15 30 31 45 35 30 7 101 54 173 114 55 45 131
89 155 89 9 0 31 12 50 28 60 49 178 132 189 132 2 0 50 29 107 64 57 35 120
66 140 69 35 5 40 3 76 -41 38 -46 39 -48 32 -102 -4 -30 -6 -58 -4 -62 6 -9
46 2 65 19 13 11 23 11 45 3 45 -17 64 -40 64 -76 0 -46 -9 -64 -32 -64 -11 0
-34 -15 -52 -32 -18 -18 -54 -53 -79 -77 -59 -56 -64 -99 -18 -150 27 -31 33
-33 99 -34 54 0 74 3 87 17 16 16 16 18 1 35 -9 10 -26 17 -39 14 -31 -5 -67
27 -76 68 -7 32 -4 40 29 78 35 42 37 43 54 26 13 -13 16 -27 12 -51 -11 -53
42 -51 76 4 10 15 23 35 30 44 10 14 9 21 -8 40 -20 23 -31 78 -16 78 5 0 19
-11 31 -24 17 -18 22 -32 17 -50 -6 -24 -5 -25 19 -14 14 6 25 17 25 25 0 7 5
13 10 13 6 0 10 -8 10 -18 0 -20 40 -60 100 -102 19 -13 39 -30 43 -37 4 -7
31 -28 60 -47 29 -18 70 -50 92 -70 45 -40 74 -45 126 -19 42 21 59 37 59 56
0 30 -40 172 -49 175 -5 2 -29 18 -52 35 -23 18 -49 37 -58 42 -9 6 -18 12
-21 16 -3 3 -23 16 -45 29 -22 13 -56 39 -75 57 -19 18 -51 41 -70 51 -32 15
-35 20 -32 55 3 37 3 37 -35 37 -22 0 -48 9 -63 20 -14 11 -29 20 -35 20 -5 0
-21 9 -34 19 -19 15 -21 21 -13 38 8 15 7 25 -4 42 -15 21 -14 24 10 45 24 20
26 27 20 67 -4 24 -12 51 -19 59 -11 13 -26 110 -26 160 0 8 1 35 1 60 1 50
-13 95 -37 122 -18 21 -62 24 -65 6 -7 -56 -4 -145 8 -203 7 -38 16 -104 19
-145 3 -41 9 -91 13 -110 7 -31 5 -36 -17 -48 -13 -7 -25 -11 -26 -10 -1 2
-22 39 -45 83 -23 44 -48 87 -55 95 -18 22 -55 104 -55 122 0 8 -20 33 -45 55
-54 50 -60 71 -47 166 11 87 -2 157 -37 193 -23 24 -34 27 -59 17z m427 -1147
c9 -10 9 -16 1 -21 -16 -10 -40 2 -40 20 0 19 24 20 39 1z"/>
<path d="M12376 7864 c-10 -9 -24 -13 -36 -9 -13 4 -20 2 -20 -7 0 -8 -13 -27
-29 -42 -16 -16 -27 -34 -24 -42 3 -8 -2 -17 -11 -20 -24 -9 -19 -36 13 -74
l29 -35 7 30 c15 71 30 106 66 154 22 28 39 54 39 56 0 10 -19 4 -34 -11z"/>
<path d="M1210 7810 c0 -6 -11 -15 -24 -20 -25 -9 -66 -85 -66 -121 0 -11 -9
-28 -20 -39 -23 -23 -25 -51 -6 -88 24 -48 30 -110 12 -137 -18 -28 -21 -65
-5 -65 5 0 8 4 5 8 -2 4 4 13 15 20 17 11 21 9 29 -12 7 -19 16 -24 38 -24 28
1 37 17 19 34 -12 12 -8 41 7 54 8 6 12 18 9 26 -3 8 -3 21 1 29 5 14 9 14 43
0 42 -18 51 -12 55 33 2 24 -4 36 -20 48 -12 8 -22 22 -22 30 0 30 -29 14 -32
-18 -2 -27 -7 -33 -25 -32 -14 0 -25 -7 -29 -18 -3 -10 -10 -18 -15 -18 -13 0
-11 18 3 22 9 3 8 9 -5 22 -21 21 -22 32 -2 40 17 6 21 56 5 56 -22 0 -8 28
36 73 25 26 51 47 57 47 7 0 6 4 -3 10 -8 5 -15 17 -15 27 0 11 -9 19 -22 21
-13 2 -23 -2 -23 -8z m-65 -249 c3 -5 1 -12 -5 -16 -5 -3 -10 1 -10 9 0 18 6
21 15 7z"/>
<path d="M3932 7792 c-5 -15 -6 -35 -3 -45 6 -17 8 -18 20 -3 13 15 15 15 28
-3 7 -11 12 -33 11 -50 -2 -16 2 -31 7 -33 14 -4 18 63 6 95 -6 15 -17 27 -26
27 -8 0 -15 6 -15 14 0 27 -18 26 -28 -2z"/>
<path d="M12182 7809 c2 -7 10 -15 17 -17 8 -3 12 1 9 9 -2 7 -10 15 -17 17
-8 3 -12 -1 -9 -9z"/>
<path d="M12582 7710 c1 -13 9 -25 16 -28 17 -5 15 23 -4 39 -14 11 -15 10
-12 -11z"/>
<path d="M1512 7679 c7 -20 14 -27 20 -21 6 6 6 17 -1 31 -18 32 -31 25 -19
-10z"/>
<path d="M3649 7523 c-2 -30 2 -48 14 -55 16 -10 30 19 23 48 -7 28 -35 33
-37 7z"/>
<path d="M11013 7443 c-11 -10 -27 -30 -37 -45 -17 -26 -17 -26 6 -21 31 8 69
50 62 68 -8 19 -7 19 -31 -2z"/>
<path d="M3643 7418 c4 -12 2 -27 -4 -34 -7 -9 -4 -16 9 -26 10 -7 24 -22 30
-33 18 -32 15 6 -3 41 -8 16 -15 39 -15 52 0 12 -5 22 -11 22 -7 0 -9 -9 -6
-22z"/>
<path d="M5830 7361 c0 -27 5 -53 10 -56 6 -3 10 3 10 14 0 11 5 23 10 26 6 4
10 -5 10 -20 0 -35 41 -55 65 -31 19 18 35 21 35 5 0 -5 5 -7 10 -4 15 10 12
25 -6 25 -9 0 -18 9 -21 20 -4 15 -14 20 -42 20 -28 0 -39 5 -46 22 -19 42
-35 33 -35 -21z"/>
<path d="M10896 7345 c-10 -8 -24 -16 -30 -18 -8 -3 -8 -8 1 -17 17 -18 73 6
73 31 0 22 -18 24 -44 4z"/>
<path d="M11400 7275 c0 -8 4 -15 9 -15 4 0 24 -11 44 -24 31 -21 37 -23 48
-10 6 8 10 16 8 18 -2 1 -20 12 -40 24 -42 26 -69 28 -69 7z"/>
<path d="M6600 6709 c0 -5 5 -7 10 -4 6 3 10 8 10 11 0 2 -4 4 -10 4 -5 0 -10
-5 -10 -11z"/>
<path d="M4206 6676 c3 -8 -2 -25 -10 -38 -17 -26 -13 -40 10 -31 11 4 13 -2
8 -28 -3 -19 -7 -39 -9 -45 -2 -6 0 -26 4 -45 6 -28 11 -34 33 -34 23 -1 25 1
15 22 -6 13 -16 23 -24 23 -7 0 -13 7 -13 15 0 9 6 12 16 8 13 -5 15 2 9 52
-3 32 -13 71 -21 86 -15 30 -28 40 -18 15z"/>
<path d="M4360 6563 c1 -27 1 -27 15 -9 14 19 12 36 -6 36 -5 0 -9 -12 -9 -27z"/>
<path d="M4415 6540 c12 -13 22 -17 28 -11 13 13 -1 31 -25 31 -21 0 -21 -1
-3 -20z"/>
<path d="M247 6523 c-13 -12 -7 -24 11 -21 13 2 17 -4 17 -24 0 -14 3 -30 8
-34 4 -4 7 -17 7 -28 0 -16 7 -22 25 -24 30 -2 33 18 6 42 -10 9 -21 35 -25
56 -5 30 -11 40 -24 40 -10 0 -22 -3 -25 -7z"/>
<path d="M4505 6500 c-5 -8 -1 -17 11 -23 10 -6 28 -21 40 -34 12 -12 28 -23
36 -23 8 0 23 -7 34 -15 29 -22 53 -18 64 11 11 28 6 44 -14 44 -7 0 -21 9
-33 19 -25 24 -127 39 -138 21z"/>
<path d="M3910 6442 c0 -12 19 -26 26 -19 2 2 -2 10 -11 17 -9 8 -15 8 -15 2z"/>
<path d="M4269 6400 c-6 -25 -13 -76 -15 -114 -4 -79 -14 -93 -65 -97 -42 -4
-96 30 -105 67 -7 28 -32 44 -68 44 -14 0 -29 7 -34 16 -11 20 -34 9 -31 -14
1 -10 1 -30 0 -45 -1 -26 -3 -28 -36 -21 -23 4 -41 2 -51 -7 -14 -11 -18 -10
-30 6 -8 10 -14 33 -14 51 0 35 -29 70 -38 45 -9 -28 -43 -52 -63 -46 -12 4
-36 4 -55 0 -32 -6 -34 -8 -33 -48 1 -56 7 -70 52 -106 32 -25 42 -28 64 -20
19 7 30 6 42 -4 30 -26 126 -46 244 -50 109 -4 118 -3 128 15 7 13 16 17 27
12 9 -4 73 -10 140 -15 108 -7 134 -12 200 -41 43 -18 103 -47 134 -65 31 -18
67 -33 81 -33 24 0 95 -41 109 -64 24 -37 24 -37 54 -21 35 18 54 19 54 3 0
-24 -15 -36 -65 -52 -27 -10 -55 -22 -61 -27 -7 -5 -23 -7 -37 -4 -52 14 -64
1 -63 -68 l1 -62 -45 -6 c-43 -5 -44 -6 -20 -16 48 -20 55 -38 30 -78 -21 -35
-31 -41 -43 -29 -11 11 -71 13 -84 2 -7 -5 -26 -7 -43 -3 -22 5 -32 3 -36 -9
-9 -24 -44 -20 -44 4 0 23 -28 27 -36 5 -4 -8 0 -22 7 -31 11 -14 28 -15 106
-9 51 4 152 8 225 10 313 9 370 14 390 32 16 14 21 15 28 4 6 -11 13 -9 31 8
12 11 36 21 51 21 16 0 41 6 56 13 15 8 42 14 61 16 19 1 39 6 45 10 6 5 27 9
46 8 19 0 52 7 72 17 32 15 37 22 32 42 -4 15 -2 24 6 24 6 0 9 4 6 9 -7 11
18 33 27 24 4 -3 7 -17 7 -30 0 -20 5 -24 23 -21 18 2 21 8 19 31 -2 16 -12
38 -23 50 -32 35 -25 47 24 41 33 -5 46 -2 63 14 12 11 32 22 45 24 24 3 24 3
-10 36 -28 26 -40 32 -63 27 -20 -5 -35 -1 -54 14 -15 12 -37 21 -49 21 -13 0
-36 7 -51 15 -16 8 -41 13 -55 10 -32 -7 -117 15 -189 49 -30 14 -60 26 -67
26 -6 0 -37 15 -70 33 -32 18 -78 41 -103 51 -25 9 -62 28 -82 42 -21 13 -45
24 -54 24 -9 0 -29 11 -46 25 -16 14 -36 25 -44 25 -8 0 -31 18 -51 40 -31 33
-44 40 -76 40 -26 0 -52 9 -82 30 -32 22 -60 32 -105 37 -50 5 -65 11 -85 34
-13 16 -28 29 -32 29 -5 0 -15 6 -21 12 -7 7 -30 13 -52 13 -38 0 -40 -1 -51
-45z m-442 -180 c19 -11 40 -17 50 -13 12 5 11 1 -5 -15 -29 -29 -46 -28 -71
4 -37 47 -26 56 26 24z m1240 -386 c-3 -3 -12 -4 -19 -1 -8 3 -5 6 6 6 11 1
17 -2 13 -5z m440 -108 c4 -3 -1 -14 -10 -24 -10 -10 -17 -26 -17 -35 0 -29
-28 -19 -32 11 -2 19 -8 27 -20 26 -19 -2 -25 22 -8 28 16 5 81 1 87 -6z"/>
<path d="M4210 6419 c0 -6 7 -17 15 -25 16 -16 19 -7 9 20 -7 18 -24 22 -24 5z"/>
<path d="M4990 6406 c0 -2 7 -7 16 -10 8 -3 12 -2 9 4 -6 10 -25 14 -25 6z"/>
<path d="M4784 6347 c-18 -18 -19 -24 -8 -35 37 -34 100 6 71 46 -14 18 -40
14 -63 -11z"/>
<path d="M310 6301 c-15 -28 -13 -33 13 -29 14 2 23 11 25 26 4 28 -23 30 -38
3z"/>
<path d="M3387 6252 c-10 -10 -17 -27 -17 -37 0 -11 -20 -38 -44 -60 l-45 -41
6 -57 c5 -54 4 -58 -26 -86 -39 -37 -39 -49 1 -53 31 -3 51 -25 78 -86 5 -12
16 -25 25 -28 8 -3 31 -28 51 -55 20 -27 40 -49 46 -49 5 0 19 10 30 23 17 19
21 37 21 84 l0 61 51 7 c79 11 110 33 114 81 3 38 -1 44 -65 106 -91 87 -173
180 -173 196 0 18 -35 15 -53 -6z m101 -332 c-3 -9 -9 -8 -21 4 -9 10 -14 22
-11 28 4 6 12 4 21 -5 9 -8 13 -21 11 -27z"/>
<path d="M347 6248 c-9 -26 11 -45 42 -40 35 5 35 6 21 33 -12 21 -56 26 -63
7z"/>
<path d="M8340 6210 c0 -5 5 -10 10 -10 6 0 10 5 10 10 0 6 -4 10 -10 10 -5 0
-10 -4 -10 -10z"/>
<path d="M8371 6194 c0 -11 3 -14 6 -6 3 7 2 16 -1 19 -3 4 -6 -2 -5 -13z"/>
<path d="M2233 6157 c-12 -12 -35 -51 -53 -87 -18 -36 -36 -66 -41 -68 -5 -2
-9 -8 -9 -14 0 -6 -12 -25 -27 -44 -63 -76 -72 -93 -79 -145 -8 -68 -17 -85
-54 -104 -20 -10 -33 -28 -41 -55 -7 -22 -18 -40 -26 -40 -7 0 -13 -11 -13
-25 0 -14 -11 -37 -25 -51 -27 -27 -25 -45 9 -82 36 -40 73 -62 132 -78 63
-16 74 -13 74 21 0 13 11 32 26 44 20 16 25 28 23 53 -4 42 2 52 46 72 20 10
37 27 41 40 3 13 16 29 30 36 13 8 24 20 24 28 0 8 20 33 44 56 27 25 47 54
51 73 3 17 13 37 21 44 8 7 14 29 14 55 0 33 5 46 20 54 46 25 7 59 -66 60
-48 0 -53 2 -64 30 -9 22 -10 41 -3 69 11 40 9 48 -18 68 -13 11 -19 9 -36
-10z m-190 -543 c10 -10 -34 -63 -70 -84 -31 -18 -34 -18 -40 -3 -4 9 1 21 12
29 14 10 15 17 7 27 -9 10 -9 16 0 25 12 12 80 17 91 6z"/>
<path d="M393 6145 c-13 -12 -23 -26 -23 -31 0 -14 -134 -144 -148 -144 -6 0
-12 -9 -12 -20 0 -14 -11 -25 -31 -34 -19 -8 -37 -26 -45 -45 -7 -17 -20 -31
-29 -31 -8 0 -15 -7 -15 -15 0 -9 -16 -25 -35 -36 -20 -12 -40 -29 -45 -39 -6
-12 -10 -408 -10 -1075 l0 -1056 22 -8 c13 -5 28 -6 35 -4 6 2 28 -4 50 -15
22 -11 72 -22 118 -27 44 -3 91 -14 104 -22 23 -15 151 -36 326 -53 215 -22
276 -30 296 -41 11 -6 41 -11 65 -11 32 0 47 -5 54 -18 11 -21 35 -31 54 -24
29 11 -7 127 -52 167 -18 17 -20 27 -15 87 4 51 2 74 -10 96 -9 16 -25 78 -37
138 -11 60 -25 117 -30 127 -6 10 -10 28 -10 40 0 11 -7 42 -15 68 -8 25 -22
82 -31 126 -9 44 -27 113 -40 154 -13 41 -33 117 -44 170 -11 53 -29 122 -40
154 -11 32 -27 88 -36 125 -9 37 -27 98 -40 135 -13 38 -24 85 -24 105 0 21
-6 62 -14 92 -7 30 -23 100 -35 155 -25 112 -48 205 -62 251 -5 17 -9 43 -9
58 0 15 -9 60 -20 99 -28 98 -37 133 -51 197 -23 112 -39 164 -61 196 -13 19
-25 33 -28 33 -3 -1 -15 -11 -27 -24z m162 -1385 c8 -13 -13 -40 -31 -40 -8 0
-14 10 -14 25 0 18 5 25 19 25 11 0 23 -5 26 -10z"/>
<path d="M2444 5985 c16 -16 46 -20 46 -6 0 5 -10 11 -22 15 -36 9 -41 7 -24
-9z"/>
<path d="M10689 5803 c-1 -5 -3 -104 -5 -222 l-3 -215 -31 -59 c-32 -60 -32
-82 0 -72 11 3 41 10 67 14 51 9 189 35 263 50 70 14 164 51 178 69 17 22 16
162 -2 231 -8 31 -18 72 -21 92 -9 62 -19 68 -134 74 -111 6 -131 9 -199 31
-46 15 -111 19 -113 7z m101 -117 c0 -16 -27 -29 -41 -20 -15 9 -10 22 9 27
29 8 32 7 32 -7z m74 -25 c3 -5 0 -14 -8 -20 -11 -9 -18 -8 -30 4 -9 9 -16 18
-16 21 0 8 49 4 54 -5z m76 -11 c0 -5 -7 -7 -15 -4 -8 4 -12 10 -9 15 6 11 24
2 24 -11z"/>
<path d="M11286 5733 c-5 -19 -1 -57 8 -93 9 -34 16 -90 16 -124 0 -95 33
-112 95 -50 29 29 41 35 62 29 41 -10 73 18 73 65 0 33 -4 41 -23 45 -13 4
-27 5 -33 4 -5 -1 -22 3 -37 9 -16 7 -35 12 -43 12 -8 0 -27 18 -42 41 -15 22
-37 52 -48 67 l-22 26 -6 -31z"/>
<path d="M4413 5723 c-26 -3 -34 -10 -40 -31 -4 -16 -2 -27 5 -30 7 -2 12 -10
12 -18 0 -8 5 -14 10 -14 6 0 10 5 10 10 0 13 34 13 81 -2 36 -10 44 -19 40
-42 -1 -5 5 -6 14 -2 9 3 19 6 21 6 2 0 4 8 4 18 0 10 5 23 12 30 17 17 -17
51 -52 50 -15 -1 -38 6 -51 16 -13 9 -26 15 -29 14 -3 0 -20 -3 -37 -5z"/>
<path d="M4128 5645 c-2 -43 -3 -49 -11 -62 -14 -23 10 -21 38 3 19 17 32 21
39 14 17 -17 60 -11 74 10 7 12 10 25 7 30 -12 19 -72 40 -108 38 -33 -3 -37
-6 -39 -33z"/>
<path d="M6160 5615 c0 -8 5 -15 10 -15 6 0 10 7 10 15 0 8 -4 15 -10 15 -5 0
-10 -7 -10 -15z"/>
<path d="M6125 5579 c-16 -5 -45 -8 -62 -5 -18 3 -35 0 -39 -6 -4 -5 -20 -8
-38 -5 -40 6 -147 -28 -166 -53 -11 -14 -36 -22 -100 -30 -47 -5 -119 -22
-160 -36 -117 -39 -140 -45 -215 -55 -116 -14 -196 -27 -280 -44 -44 -9 -104
-18 -133 -20 -29 -2 -60 -9 -67 -15 -8 -7 -20 -8 -26 -4 -20 12 -116 4 -155
-12 -19 -8 -44 -12 -56 -9 -11 4 -113 9 -226 11 -114 2 -228 7 -254 10 -33 5
-59 2 -87 -9 -22 -9 -43 -13 -45 -8 -3 5 -17 12 -31 15 -15 4 -49 23 -77 42
-36 25 -53 33 -61 25 -7 -7 -7 -17 0 -33 6 -13 11 -34 11 -47 1 -14 8 -28 16
-33 11 -6 12 -13 3 -33 -7 -14 -15 -25 -19 -25 -11 0 -40 -100 -34 -116 4 -10
-5 -21 -24 -32 -36 -21 -41 -65 -10 -84 11 -7 20 -18 20 -24 0 -29 67 -64 135
-70 17 -1 55 -11 85 -22 49 -17 55 -22 58 -50 3 -27 8 -31 43 -37 21 -4 41
-11 45 -16 3 -5 23 -9 44 -9 21 0 67 -7 102 -16 34 -9 99 -20 143 -24 76 -7
83 -6 139 22 52 26 67 30 113 24 48 -6 53 -4 53 13 0 10 7 22 16 25 23 9 72 7
92 -3 9 -5 25 -12 34 -15 10 -3 15 -11 12 -19 -3 -8 14 -33 38 -59 43 -44 46
-45 138 -57 52 -7 115 -17 140 -22 46 -9 348 -14 475 -7 39 2 79 -1 90 -7 11
-5 38 -11 60 -12 22 -1 126 -6 230 -11 146 -7 202 -6 240 4 35 9 55 9 69 2 26
-14 142 -1 177 19 32 19 46 43 25 43 -7 0 -31 12 -52 26 -21 15 -33 19 -25 11
16 -20 5 -43 -13 -28 -15 13 -26 4 -26 -21 0 -13 -7 -18 -25 -18 -28 0 -57 25
-79 69 -9 16 -28 36 -43 43 -17 8 -32 26 -38 45 -12 37 -52 83 -73 83 -21 0
-67 29 -78 50 -28 53 -111 159 -125 160 -9 0 -21 -11 -27 -25 -9 -19 -19 -25
-45 -25 -18 0 -40 6 -49 13 -26 20 -5 72 42 103 22 15 40 31 40 36 0 15 53 57
72 58 10 0 26 17 38 39 22 45 32 50 77 43 29 -4 33 -1 47 32 8 20 22 39 31 42
27 11 18 65 -17 101 -23 24 -32 42 -32 70 -2 33 -5 38 -26 40 -14 1 -38 -3
-55 -8z m50 -30 c-4 -5 -11 -9 -17 -9 -6 0 -17 -8 -24 -17 -12 -16 -13 -16
-14 -2 0 9 10 23 23 32 22 15 42 13 32 -4z m-95 -100 c0 -16 -32 -10 -46 9
-18 23 -17 42 1 42 8 0 15 6 15 13 1 13 30 -50 30 -64z m-2074 -201 c-3 -13
-6 -28 -6 -35 0 -18 -38 -35 -61 -28 -20 7 -45 53 -34 63 4 5 43 13 99 21 4 0
6 -9 2 -21z m183 -140 c-4 -24 -9 -50 -9 -58 -2 -29 -19 24 -19 63 -1 30 3 37
18 37 16 0 17 -5 10 -42z m801 -348 c0 -5 -4 -10 -10 -10 -5 0 -10 5 -10 10 0
6 5 10 10 10 6 0 10 -4 10 -10z"/>
<path d="M3985 5565 c-34 -18 -65 -51 -65 -70 0 -9 11 -10 48 -3 26 5 66 7 90
4 33 -4 42 -2 42 9 0 8 -5 15 -11 15 -6 0 -9 6 -6 13 15 42 -41 60 -98 32z"/>
<path d="M4546 5565 c-11 -8 -17 -18 -13 -21 10 -11 37 4 37 21 0 18 0 18 -24
0z"/>
<path d="M4267 5503 c-12 -11 -8 -23 8 -23 8 0 15 7 15 15 0 16 -12 20 -23 8z"/>
<path d="M2480 5461 c-13 -25 -13 -71 0 -71 6 0 10 7 10 15 0 8 5 15 10 15 6
0 10 14 10 30 0 34 -14 39 -30 11z"/>
<path d="M3267 5233 c-9 -9 -29 -17 -44 -18 -22 0 -29 -5 -31 -25 -2 -13 -11
-29 -19 -36 -9 -6 -13 -16 -10 -21 13 -20 -78 -73 -124 -73 -29 0 -33 -20 -8
-46 22 -24 59 -38 129 -49 53 -8 124 -27 136 -37 6 -4 42 -12 80 -17 38 -6 85
-14 104 -20 64 -20 84 -15 96 25 10 31 9 41 -13 79 -13 24 -31 46 -39 49 -13
5 -15 15 -10 49 5 33 2 56 -13 90 -21 49 -39 58 -64 32 -8 -8 -17 -11 -21 -8
-3 4 -6 0 -6 -9 0 -8 11 -20 24 -26 18 -8 27 -22 31 -49 3 -21 12 -55 20 -75
7 -21 12 -38 10 -38 -1 0 -23 11 -48 25 -29 16 -48 22 -52 15 -11 -18 -30 -11
-48 19 -10 17 -26 33 -37 36 -17 6 -18 9 -5 50 7 26 9 47 4 51 -5 3 -9 14 -9
25 0 24 -10 24 -33 2z"/>
<path d="M3376 5214 c-4 -10 -2 -13 6 -8 8 5 9 2 5 -9 -3 -10 -2 -17 3 -17 12
0 13 37 1 44 -5 3 -12 -1 -15 -10z"/>
<path d="M8441 5221 c-12 -8 -12 -14 -1 -43 26 -65 43 -71 54 -18 4 23 1 35
-14 50 -23 23 -21 22 -39 11z"/>
<path d="M6215 5172 c1 -44 10 -62 33 -62 34 0 47 -17 34 -42 -29 -58 -32 -77
-15 -113 20 -41 32 -43 62 -11 22 23 22 27 10 103 -23 153 -32 171 -65 138
-21 -21 -34 -19 -34 5 0 11 -6 20 -12 20 -8 0 -13 -14 -13 -38z"/>
<path d="M11468 5149 c-23 -13 -23 -36 0 -48 15 -8 22 -4 35 19 9 15 17 31 17
34 0 9 -33 6 -52 -5z"/>
<path d="M11395 5110 c-3 -5 -2 -10 4 -10 5 0 13 5 16 10 3 6 2 10 -4 10 -5 0
-13 -4 -16 -10z"/>
<path d="M11706 5072 c-29 -15 -66 -26 -90 -27 -52 0 -104 -28 -112 -60 -6
-22 -30 -39 -50 -33 -14 3 -96 -12 -126 -24 -18 -6 -28 -18 -28 -30 0 -13 -11
-24 -29 -31 -28 -10 -61 -60 -61 -92 0 -8 -9 -20 -20 -27 -11 -7 -20 -17 -20
-23 1 -26 -36 -125 -47 -125 -6 0 -22 -15 -34 -32 -35 -49 -72 -88 -86 -88 -7
0 -27 -9 -45 -20 -18 -11 -41 -20 -50 -20 -9 0 -33 -20 -53 -44 -42 -52 -149
-119 -187 -118 -15 0 -30 -4 -33 -9 -4 -5 -15 -9 -26 -9 -11 0 -23 -8 -26 -17
-4 -10 -15 -29 -25 -42 -31 -41 -7 -49 59 -19 32 15 80 34 107 43 27 10 56 25
66 35 9 9 36 20 59 24 38 6 79 22 91 37 3 3 33 17 68 30 37 14 81 40 105 63
37 35 58 45 137 63 36 8 77 39 83 64 3 11 3 18 0 15 -9 -9 -33 14 -33 31 0 14
3 13 23 0 15 -10 29 -12 38 -6 8 5 28 9 46 9 35 0 67 25 59 46 -9 22 84 74
133 74 18 0 40 14 69 43 23 24 39 46 36 50 -4 4 5 24 19 46 32 48 61 144 53
176 -3 13 -2 27 4 30 5 3 10 15 10 26 0 26 -24 24 -84 -9z"/>
<path d="M11024 4985 c-10 -8 -30 -15 -43 -15 -38 0 -15 -14 28 -17 25 -2 43
3 51 12 7 8 19 15 26 15 8 0 14 5 14 10 0 15 -54 12 -76 -5z"/>
<path d="M8456 4977 c3 -10 9 -15 12 -12 3 3 0 11 -7 18 -10 9 -11 8 -5 -6z"/>
<path d="M8451 4928 c-9 -25 -3 -58 10 -58 5 0 9 18 9 40 0 45 -7 51 -19 18z"/>
<path d="M8530 4885 c0 -8 4 -15 10 -15 5 0 7 7 4 15 -4 8 -8 15 -10 15 -2 0
-4 -7 -4 -15z"/>
<path d="M8530 4835 c0 -11 7 -15 23 -13 12 2 22 8 22 13 0 6 -10 11 -22 13
-16 2 -23 -2 -23 -13z"/>
<path d="M3860 4831 c0 -5 7 -11 15 -15 8 -3 15 -1 15 3 0 5 -7 11 -15 15 -8
3 -15 1 -15 -3z"/>
<path d="M6430 4766 c0 -9 30 -14 35 -6 4 6 -3 10 -14 10 -12 0 -21 -2 -21 -4z"/>
<path d="M8575 4740 c-3 -5 -1 -10 4 -10 6 0 11 5 11 10 0 6 -2 10 -4 10 -3 0
-8 -4 -11 -10z"/>
<path d="M9890 4695 c-93 -13 -214 -68 -256 -115 -21 -24 -21 -26 -4 -50 9
-14 20 -32 23 -40 3 -8 6 -1 6 16 1 43 17 55 49 38 23 -11 29 -11 47 1 45 32
109 56 137 50 20 -5 39 0 63 15 19 12 48 25 63 29 22 6 27 14 29 39 1 31 0 32
-35 31 -21 -1 -75 -7 -122 -14z"/>
<path d="M9091 4533 c-25 -3 -54 -11 -65 -19 -11 -8 -32 -14 -46 -14 -29 0
-50 -16 -50 -38 0 -8 -9 -25 -20 -39 -26 -33 -17 -45 26 -37 47 9 44 -10 -5
-35 -40 -21 -51 -37 -51 -74 -1 -40 -22 -56 -67 -50 -35 5 -44 2 -67 -23 -45
-50 -34 -60 59 -54 22 1 43 6 46 11 8 13 67 29 107 29 53 0 75 17 68 51 -4 22
0 32 17 44 l21 15 -27 0 c-22 0 -27 4 -27 25 0 14 4 25 9 25 6 0 11 17 13 38
3 33 6 37 32 40 21 3 34 -3 46 -19 19 -24 40 -19 40 11 0 10 15 27 35 39 29
17 39 19 60 9 21 -10 29 -9 43 6 16 16 16 18 -3 32 -14 11 -33 13 -66 9 -37
-5 -48 -3 -52 9 -4 9 -12 15 -19 14 -7 -1 -33 -3 -57 -5z"/>
<path d="M9700 4510 c0 -5 4 -10 9 -10 6 0 13 5 16 10 3 6 -1 10 -9 10 -9 0
-16 -4 -16 -10z"/>
<path d="M4220 4435 c0 -8 6 -16 13 -16 6 -1 17 -2 22 -4 6 -1 16 -3 23 -3 7
-1 11 -6 7 -11 -12 -20 14 -20 39 0 35 27 24 43 -25 35 -24 -4 -39 -2 -39 4 0
5 -9 10 -20 10 -11 0 -20 -7 -20 -15z"/>
<path d="M4438 4399 c-14 -9 -6 -40 12 -49 61 -30 73 -32 147 -27 98 6 218 -8
289 -34 31 -12 63 -18 75 -14 11 4 51 1 87 -6 49 -9 67 -9 70 -1 2 7 15 12 29
12 18 0 24 -4 19 -15 -3 -8 -1 -15 4 -15 5 0 18 -9 28 -20 17 -18 20 -19 32
-5 7 8 9 15 6 15 -18 0 23 29 45 32 20 2 24 9 24 37 0 39 5 38 -185 47 -57 3
-110 10 -116 15 -6 5 -22 9 -35 9 -77 1 -208 11 -229 17 -31 8 -288 10 -302 2z"/>
<path d="M13407 4336 c-4 -10 -5 -21 -2 -24 9 -9 17 6 13 25 -3 17 -4 17 -11
-1z"/>
<path d="M5593 4333 c-19 -7 -16 -51 5 -62 10 -5 46 -11 80 -14 67 -4 92 -19
119 -71 15 -28 14 -31 -6 -47 -21 -17 -24 -17 -74 0 -53 18 -131 22 -155 7 -7
-4 -12 -28 -12 -56 0 -40 4 -50 20 -55 11 -3 20 -13 20 -21 0 -8 4 -14 9 -14
15 0 51 51 51 71 0 15 8 19 35 19 24 0 35 -5 35 -14 0 -8 5 -16 12 -18 7 -3
11 -22 10 -49 -3 -95 -1 -133 8 -149 10 -19 37 -26 153 -41 42 -5 114 -14 160
-20 117 -16 292 -17 292 -2 0 6 13 21 29 34 27 21 29 22 42 5 10 -14 16 -16
34 -6 28 15 21 33 -18 45 -26 7 -32 14 -32 37 0 17 7 31 19 38 29 15 30 13 24
-22 l-5 -33 54 3 c29 2 61 11 70 19 14 13 21 13 33 3 12 -10 16 -9 21 5 13 33
-61 50 -86 20 -21 -25 -42 -18 -38 13 2 19 9 27 23 28 11 0 28 4 38 8 12 6 22
3 31 -9 19 -26 84 -24 107 3 24 30 16 47 -32 66 -21 9 -48 25 -59 36 -11 11
-28 20 -37 20 -9 0 -25 7 -35 17 -16 14 -22 14 -43 3 -22 -12 -27 -11 -45 5
-27 25 -9 36 47 29 34 -4 42 -2 47 13 5 19 -14 107 -27 120 -4 4 -49 8 -100 9
-51 1 -104 6 -119 12 -18 7 -121 11 -280 12 -139 0 -289 1 -333 3 -44 3 -86 2
-92 0z m766 -436 c19 -21 20 -26 7 -36 -28 -23 -83 10 -70 43 9 23 37 20 63
-7z"/>
<path d="M9688 4307 c-22 -17 -28 -72 -8 -72 8 0 20 11 27 25 7 14 18 25 25
25 7 0 13 7 13 15 0 19 -35 24 -57 7z"/>
<path d="M3848 4287 c-27 -6 -38 -14 -38 -28 0 -10 4 -19 9 -19 4 0 21 -10 36
-22 16 -12 38 -22 49 -23 14 0 20 -6 18 -17 -2 -10 1 -18 6 -18 18 0 22 -31 7
-60 -27 -52 -16 -80 32 -80 20 0 52 -36 60 -68 9 -36 -13 -75 -37 -67 -14 5
-20 2 -20 -9 0 -9 8 -16 18 -16 10 0 19 -7 19 -15 0 -10 -6 -14 -16 -10 -24
10 -23 10 -68 2 -33 -6 -43 -12 -43 -26 0 -15 7 -19 33 -17 26 1 33 -3 35 -21
4 -29 20 -40 62 -45 19 -1 40 -6 45 -11 37 -28 88 -57 101 -57 8 0 33 -9 54
-19 26 -12 61 -19 101 -19 49 0 65 -4 85 -23 13 -12 24 -29 24 -37 0 -8 7 -30
17 -49 19 -41 8 -54 -43 -51 -26 2 -40 -6 -73 -42 -23 -24 -40 -49 -38 -55 2
-5 21 -11 43 -12 86 -5 103 -9 121 -25 14 -13 29 -16 55 -11 44 7 81 -1 102
-22 9 -9 37 -18 64 -22 48 -5 49 -5 87 41 39 48 61 57 72 31 8 -21 49 -41 103
-50 25 -4 61 -18 82 -32 45 -31 97 -29 109 4 6 17 5 21 -6 17 -7 -3 -18 4 -24
15 -14 25 -14 34 -1 26 6 -3 10 -1 10 4 0 6 -4 11 -10 11 -5 0 -9 5 -7 12 1 7
-8 17 -20 23 -27 12 -30 43 -5 53 9 4 38 19 63 35 40 23 51 26 74 17 38 -15
52 -8 70 36 13 31 17 34 30 24 12 -10 18 -10 30 0 12 10 15 10 15 -3 0 -17 27
-30 35 -17 10 17 -46 69 -74 69 -14 0 -46 4 -71 10 -25 6 -70 15 -100 21 -48
9 -87 19 -235 59 -37 10 -171 66 -205 86 -14 8 -45 24 -70 35 -25 12 -53 25
-62 30 -10 6 -24 10 -32 10 -7 0 -38 20 -68 45 -30 25 -58 45 -62 45 -4 0 -26
16 -49 35 -22 19 -44 35 -47 35 -4 0 -39 31 -78 69 -39 38 -73 67 -75 64 -3
-3 -3 -19 0 -36 6 -44 -27 -79 -70 -75 -26 2 -36 11 -51 42 -17 34 -18 45 -7
84 10 39 9 47 -5 63 -11 12 -14 27 -10 43 5 22 2 24 -32 29 -20 3 -48 7 -62
10 -14 2 -42 0 -62 -6z m425 -352 c10 -4 17 -18 17 -32 0 -29 -16 -44 -78 -74
-42 -19 -45 -20 -70 -3 -15 10 -34 27 -43 38 -16 20 -16 22 -1 38 10 9 23 24
31 33 11 13 25 16 70 12 31 -3 64 -9 74 -12z m257 -291 c0 -8 -4 -12 -10 -9
-5 3 -10 10 -10 16 0 5 5 9 10 9 6 0 10 -7 10 -16z"/>
<path d="M4519 4249 c-9 -5 14 -25 125 -106 17 -13 36 -23 42 -23 7 0 63 -24
126 -54 146 -69 152 -70 204 -56 53 15 103 7 140 -23 30 -23 30 -23 82 -25 27
-2 32 -6 32 -27 0 -30 7 -31 39 -6 l23 18 -20 44 c-20 43 -20 44 -1 65 20 21
25 44 10 44 -4 0 -14 20 -21 45 -15 55 -35 69 -66 48 -13 -8 -27 -12 -32 -9
-6 3 -15 -1 -22 -9 -10 -12 -32 -13 -109 -10 -53 3 -139 7 -191 10 -95 4 -213
32 -254 58 -24 16 -91 26 -107 16z m501 -189 c13 -9 13 -11 0 -20 -19 -13 -34
-8 -38 13 -4 19 15 22 38 7z"/>
<path d="M9110 4250 c0 -5 5 -10 10 -10 6 0 10 5 10 10 0 6 -4 10 -10 10 -5 0
-10 -4 -10 -10z"/>
<path d="M9515 4169 c-10 -15 3 -25 16 -12 7 7 7 13 1 17 -6 3 -14 1 -17 -5z"/>
<path d="M4340 4143 c0 -12 65 -64 87 -69 13 -4 23 -11 23 -17 0 -6 3 -7 7 -3
9 9 -62 75 -93 87 -13 4 -24 6 -24 2z"/>
<path d="M9565 4120 c-3 -5 1 -10 9 -10 9 0 16 5 16 10 0 6 -4 10 -9 10 -6 0
-13 -4 -16 -10z"/>
<path d="M10597 4006 c-41 -7 -62 -17 -69 -31 -6 -11 -16 -24 -22 -28 -6 -5 7
-7 30 -4 47 5 165 57 158 69 -6 10 -23 9 -97 -6z"/>
<path d="M4648 3963 c7 -3 16 -2 19 1 4 3 -2 6 -13 5 -11 0 -14 -3 -6 -6z"/>
<path d="M3883 3908 c1 -7 -6 -12 -15 -12 -25 2 -22 -13 3 -27 13 -7 19 -7 15
-1 -3 6 4 12 16 14 34 5 37 38 4 38 -16 0 -25 -5 -23 -12z"/>
<path d="M4827 3873 c-3 -5 18 -21 48 -36 50 -25 76 -23 60 4 -13 20 -100 46
-108 32z"/>
<path d="M8845 3718 c-4 -13 -9 -27 -11 -33 -19 -57 -19 -56 27 -49 24 4 56
13 71 20 15 8 31 14 35 13 58 -10 82 18 29 32 -21 6 -31 3 -44 -12 -20 -23
-44 -26 -36 -4 4 8 2 15 -4 15 -5 0 -12 9 -15 20 -7 28 -43 26 -52 -2z"/>
<path d="M5385 3722 c-47 -5 -50 -18 -11 -37 31 -15 41 -15 66 -5 17 7 29 18
27 23 -4 14 -44 23 -82 19z"/>
<path d="M8925 3720 c3 -5 8 -10 11 -10 2 0 4 5 4 10 0 6 -5 10 -11 10 -5 0
-7 -4 -4 -10z"/>
<path d="M8646 3675 c-3 -8 -1 -15 4 -15 6 0 10 4 10 9 0 5 8 12 18 14 13 4
12 5 -4 6 -12 0 -24 -6 -28 -14z"/>
<path d="M7771 3661 c-26 -26 -26 -36 -1 -68 22 -29 27 -63 8 -63 -21 1 -58
37 -58 55 0 13 -6 16 -21 12 -15 -4 -30 3 -52 24 -19 20 -35 28 -46 23 -9 -3
-67 -9 -129 -11 l-113 -6 -14 -33 c-8 -19 -16 -34 -19 -34 -3 0 -12 13 -20 28
-14 27 -16 28 -93 26 -43 -1 -98 -4 -123 -8 -51 -8 -140 -14 -319 -21 -107 -4
-127 -8 -146 -25 -24 -23 -41 -26 -48 -7 -3 8 -11 6 -25 -9 -21 -22 -132 -51
-150 -40 -6 3 -22 2 -37 -4 -29 -11 -177 -37 -290 -50 -106 -13 -139 -23 -144
-45 -5 -26 -30 -44 -61 -45 -20 0 -29 -9 -42 -42 -14 -32 -15 -44 -6 -55 14
-18 -8 -36 -32 -27 -8 4 -27 11 -41 17 -37 15 -62 3 -54 -25 12 -39 30 -52 53
-39 13 7 52 9 102 6 53 -3 110 1 166 12 76 15 103 15 262 3 206 -15 644 -16
758 -1 43 6 189 15 324 22 135 6 248 13 252 15 3 2 46 7 95 10 48 3 104 10
123 15 19 5 49 9 67 9 17 0 35 5 38 10 3 6 14 10 24 10 9 0 22 5 29 12 7 7 44
12 91 12 63 1 83 5 100 20 l22 20 -38 38 c-36 37 -36 38 -18 58 10 11 21 18
25 15 3 -2 21 5 39 16 26 15 32 25 28 41 -7 24 23 57 74 83 36 19 37 32 4 47
-19 9 -34 9 -58 1 -28 -10 -110 -10 -212 -1 -28 3 -30 1 -27 -28 2 -18 -3 -36
-12 -43 -17 -14 -36 -7 -36 14 0 7 -21 23 -46 35 -45 22 -46 22 -79 4 -19 -10
-37 -15 -41 -11 -4 4 0 7 10 7 11 0 16 6 14 17 -5 26 -34 27 -57 4z"/>
<path d="M5256 3445 c-3 -9 0 -15 9 -15 8 0 15 7 15 15 0 8 -4 15 -9 15 -5 0
-11 -7 -15 -15z"/>
<path d="M5200 3387 c0 -18 -6 -42 -14 -52 -10 -15 -11 -23 -2 -37 13 -22 26
-23 26 -3 0 8 10 23 21 34 20 19 20 21 5 37 -16 15 -16 18 0 35 16 18 16 19
-9 19 -24 0 -27 -4 -27 -33z"/>
<path d="M1330 3303 c0 -10 -3 -29 -7 -43 -6 -22 -4 -23 9 -12 30 24 94 -20
81 -55 -3 -7 0 -13 7 -13 22 0 81 -55 96 -89 20 -47 18 -51 -20 -51 -24 0 -39
7 -50 21 -8 12 -20 19 -26 17 -7 -2 9 -24 35 -49 38 -37 46 -51 40 -68 -5 -16
-13 -21 -33 -19 -24 3 -27 -1 -30 -29 -2 -18 1 -33 6 -33 5 0 12 -9 15 -21 7
-25 -25 -39 -89 -39 -44 0 -44 0 -44 -34 0 -19 5 -47 10 -61 8 -20 6 -32 -5
-48 -8 -12 -15 -29 -15 -39 0 -11 -10 -20 -26 -24 -20 -5 -32 0 -59 26 -38 37
-65 35 -65 -5 0 -14 4 -25 9 -25 5 0 12 -11 15 -25 4 -14 13 -25 20 -25 16 0
29 -27 20 -41 -3 -5 -18 -9 -33 -9 -32 0 -61 -34 -61 -71 0 -19 -4 -21 -39
-15 -38 6 -39 5 -55 -34 -17 -43 -30 -49 -57 -24 -16 14 -20 14 -48 -7 -37
-27 -56 -73 -36 -89 19 -16 9 -37 -21 -44 -17 -5 -24 -13 -24 -31 0 -14 -9
-33 -20 -43 -11 -9 -25 -34 -31 -56 -6 -24 -18 -40 -30 -43 -10 -3 -19 -9 -19
-14 0 -5 -14 -6 -31 -2 -37 7 -54 -13 -54 -62 0 -22 -5 -30 -18 -30 -26 0 -43
-33 -23 -41 9 -3 16 -12 16 -20 0 -16 -16 -19 -25 -4 -12 19 -35 10 -35 -13 0
-34 28 -67 56 -67 28 0 29 -5 9 -54 -12 -29 -21 -37 -38 -34 -22 3 -26 18 -12
50 4 11 0 20 -13 27 -16 8 -25 6 -46 -10 -14 -11 -26 -28 -26 -38 0 -9 -13
-27 -29 -39 -19 -14 -28 -28 -25 -40 3 -10 -3 -25 -13 -34 -24 -21 -79 -32
-88 -18 -4 6 -15 8 -25 5 -10 -3 -46 3 -79 15 -33 11 -67 20 -76 20 -8 0 -20
10 -26 23 -6 13 -24 28 -40 34 -24 9 -29 17 -29 46 0 31 -2 34 -24 30 -13 -3
-27 0 -30 6 -16 25 -26 7 -26 -47 0 -44 4 -61 19 -74 10 -9 23 -22 27 -30 17
-26 116 -83 164 -93 31 -7 90 -35 115 -55 17 -13 365 -185 435 -214 100 -43
288 -135 295 -146 11 -18 268 -130 299 -130 8 0 30 -9 50 -20 19 -12 68 -32
109 -45 41 -13 93 -33 116 -45 23 -11 46 -18 51 -15 5 3 27 -3 49 -15 22 -11
48 -20 57 -20 10 0 36 -11 60 -25 23 -14 50 -22 58 -19 9 3 16 2 16 -4 0 -6
15 -14 33 -17 17 -4 37 -10 42 -13 30 -18 77 -17 116 4 41 21 78 11 90 -25 13
-37 48 -53 90 -41 20 6 38 6 50 0 10 -6 29 -10 43 -10 14 0 48 -9 76 -20 28
-11 70 -19 93 -19 23 1 33 4 22 6 -11 3 -35 18 -53 34 -24 22 -43 29 -72 29
-27 0 -47 7 -60 20 -11 11 -28 20 -38 20 -34 0 -76 28 -112 74 -19 25 -41 45
-47 46 -16 0 -16 21 -1 55 13 30 1 45 -39 45 l-23 0 21 38 c12 20 26 40 31 43
17 11 -1 29 -27 29 -13 0 -30 7 -39 15 -8 8 -19 15 -23 15 -5 0 -17 18 -27 40
-17 39 -46 55 -46 25 0 -8 -4 -15 -9 -15 -17 0 -19 25 -3 43 14 15 13 19 -1
35 -9 10 -15 31 -14 46 2 26 -4 33 -42 53 -1 1 0 6 3 11 12 20 46 -1 63 -38
22 -46 54 -50 84 -11 13 16 31 26 47 26 33 0 41 28 16 56 -14 16 -15 21 -3 35
8 9 22 14 37 11 15 -3 33 3 49 18 28 23 24 45 -7 45 -29 0 -32 27 -3 35 21 5
24 10 18 33 -4 15 -13 31 -22 35 -13 8 -12 11 3 28 24 26 38 24 51 -8 9 -24
11 -26 18 -10 5 12 1 24 -10 37 -13 15 -16 28 -10 57 l7 38 -22 -22 c-32 -35
-50 -30 -40 10 4 17 12 43 18 57 6 15 6 34 1 49 -7 17 -5 29 6 41 8 9 15 23
15 30 0 7 7 20 15 29 32 34 75 89 75 95 0 3 -16 6 -35 6 -34 0 -49 20 -25 35
6 3 10 19 10 36 0 21 5 29 18 29 24 0 52 66 51 123 -1 39 4 52 20 64 21 14 29
43 11 43 -5 0 -14 -9 -20 -20 -14 -26 -36 -25 -58 0 -23 28 -18 35 23 31 20
-1 35 2 35 8 0 16 29 13 46 -4 12 -12 20 -13 37 -3 14 7 17 13 9 16 -17 5 -15
27 3 42 10 8 15 31 15 70 0 56 -1 58 -42 86 -24 16 -49 37 -56 47 -7 9 -23 17
-36 17 -12 0 -31 7 -42 15 -10 8 -26 15 -35 15 -9 0 -36 15 -60 33 -45 33 -93
61 -166 96 -24 11 -43 24 -43 29 0 5 -11 15 -25 22 -14 7 -25 21 -25 31 0 11
-5 16 -13 13 -21 -8 -103 41 -143 85 -20 23 -41 41 -47 41 -5 0 -25 11 -43 25
-20 15 -46 25 -67 25 -19 0 -40 7 -47 15 -6 8 -21 17 -32 21 -12 3 -42 26 -67
50 -25 24 -54 47 -63 50 -11 3 -18 15 -18 30 0 15 -7 27 -17 30 -10 3 -30 12
-45 20 -34 18 -38 18 -38 -3z m240 -314 c0 -33 -3 -40 -16 -35 -9 3 -18 6 -20
6 -7 0 -5 17 6 44 14 39 30 31 30 -15z m-190 -199 c0 -5 -4 -10 -10 -10 -5 0
-10 5 -10 10 0 6 5 10 10 10 6 0 10 -4 10 -10z m922 -452 c18 -21 18 -23 2
-35 -22 -16 -31 -10 -36 27 -5 36 7 38 34 8z m-24 -116 c6 -18 -15 -14 -22 4
-4 10 -1 14 6 12 6 -2 14 -10 16 -16z m72 4 c0 -8 -7 -17 -16 -20 -21 -8 -26
-3 -18 18 8 20 34 21 34 2z m-85 -254 c-8 -8 -25 10 -19 20 4 6 9 5 15 -3 4
-7 6 -15 4 -17z m-1570 -62 c3 -5 -3 -10 -15 -10 -12 0 -18 5 -15 10 3 6 10
10 15 10 5 0 12 -4 15 -10z m1509 -375 c-4 -8 -10 -15 -15 -15 -5 0 -9 7 -9
15 0 8 7 15 15 15 9 0 12 -6 9 -15z m-114 -125 c0 -5 -4 -10 -9 -10 -6 0 -13
5 -16 10 -3 6 1 10 9 10 9 0 16 -4 16 -10z m-150 -95 c0 -16 -43 -31 -60 -20
-8 5 -5 11 7 21 24 18 53 18 53 -1z m74 -199 c-6 -15 -44 -29 -44 -17 0 11 23
31 37 31 7 0 10 -6 7 -14z"/>
<path d="M9590 3027 c0 -16 -9 -26 -30 -34 -34 -13 -36 -21 -16 -49 14 -19 15
-19 40 5 14 14 26 32 26 42 0 10 5 21 10 24 8 5 7 11 -1 21 -17 21 -29 17 -29
-9z"/>
<path d="M1390 2965 c-9 -11 -8 -14 9 -12 22 1 28 12 12 21 -5 3 -14 -1 -21
-9z"/>
<path d="M1070 2544 c0 -17 25 -46 32 -38 3 2 3 16 0 29 -5 27 -32 35 -32 9z"/>
<path d="M2475 2291 c-6 -11 9 -23 19 -14 9 9 7 23 -3 23 -6 0 -12 -4 -16 -9z"/>
<path d="M2430 2225 c0 -8 5 -15 10 -15 6 0 10 7 10 15 0 8 -4 15 -10 15 -5 0
-10 -7 -10 -15z"/>
<path d="M3612 2164 c5 -25 35 -41 49 -27 9 9 9 16 -1 28 -17 21 -52 20 -48
-1z"/>
<path d="M2405 2141 c-3 -6 -18 -11 -31 -11 -16 0 -24 -5 -21 -12 2 -7 9 -13
15 -12 7 1 28 2 48 3 28 1 35 5 32 18 -4 20 -33 29 -43 14z"/>
<path d="M2410 2000 c0 -11 5 -20 10 -20 6 0 10 9 10 20 0 11 -4 20 -10 20 -5
0 -10 -9 -10 -20z"/>
<path d="M10211 1964 c0 -11 3 -14 6 -6 3 7 2 16 -1 19 -3 4 -6 -2 -5 -13z"/>
<path d="M2315 1900 c-3 -5 -1 -10 4 -10 6 0 11 5 11 10 0 6 -2 10 -4 10 -3 0
-8 -4 -11 -10z"/>
<path d="M4000 1890 c0 -5 5 -10 11 -10 5 0 7 5 4 10 -3 6 -8 10 -11 10 -2 0
-4 -4 -4 -10z"/>
<path d="M2290 1804 c0 -8 5 -12 10 -9 6 3 10 10 10 16 0 5 -4 9 -10 9 -5 0
-10 -7 -10 -16z"/>
<path d="M204 1774 c3 -9 6 -21 7 -27 0 -7 4 -3 9 8 13 29 12 35 -6 35 -11 0
-14 -5 -10 -16z"/>
<path d="M4194 1572 c-25 -16 -25 -48 1 -70 14 -12 32 -22 40 -22 13 0 13 4
-2 26 -16 25 -16 27 1 39 17 13 17 14 -3 24 -23 13 -23 13 -37 3z"/>
<path d="M4278 1463 c27 -11 10 -23 -32 -23 -37 0 -46 -4 -51 -21 -12 -36 10
-43 38 -14 24 26 26 27 48 11 27 -18 55 -21 64 -5 10 15 -35 59 -59 58 -12 0
-15 -3 -8 -6z"/>
<path d="M2195 1400 c-3 -5 1 -13 10 -16 22 -9 29 1 11 15 -10 8 -16 9 -21 1z"/>
<path d="M2240 1368 c0 -8 7 -23 15 -34 14 -19 14 -18 15 4 0 12 0 25 1 30 0
4 -7 8 -15 10 -9 2 -16 -3 -16 -10z"/>
<path d="M4230 1363 c0 -5 13 -20 28 -34 21 -21 34 -26 60 -22 44 7 35 28 -13
29 -24 1 -41 7 -47 18 -9 16 -28 22 -28 9z"/>
<path d="M4377 1294 c-11 -11 3 -24 27 -24 12 0 27 -5 33 -11 11 -11 33 -5 33
10 0 19 -78 40 -93 25z"/>
<path d="M2051 1244 c0 -11 3 -14 6 -6 3 7 2 16 -1 19 -3 4 -6 -2 -5 -13z"/>
<path d="M4570 1206 c0 -21 16 -28 29 -12 9 11 8 15 -5 20 -22 8 -24 8 -24 -8z"/>
<path d="M2223 1124 c-8 -22 15 -44 26 -25 10 16 4 41 -10 41 -5 0 -12 -7 -16
-16z"/>
<path d="M5140 1109 c0 -5 5 -7 10 -4 6 3 10 8 10 11 0 2 -4 4 -10 4 -5 0 -10
-5 -10 -11z"/>
<path d="M2257 964 c-11 -11 3 -24 18 -18 8 4 12 10 9 15 -6 11 -18 12 -27 3z"/>
<path d="M6102 948 c3 -7 15 -15 27 -16 15 -3 22 1 19 9 -2 7 -14 14 -27 16
-15 2 -21 -1 -19 -9z"/>
<path d="M2268 873 c6 -2 18 -2 25 0 6 3 1 5 -13 5 -14 0 -19 -2 -12 -5z"/>
<path d="M2168 393 c7 -3 16 -2 19 1 4 3 -2 6 -13 5 -11 0 -14 -3 -6 -6z"/>
<path d="M3816 312 c-12 -20 57 -53 104 -48 48 4 50 5 50 14 0 5 -24 13 -52
19 -29 6 -63 14 -74 18 -12 4 -24 2 -28 -3z"/>
<path d="M4007 269 c7 -7 15 -10 18 -7 3 3 -2 9 -12 12 -14 6 -15 5 -6 -5z"/>
<path d="M4069 273 c-20 -5 -30 -35 -19 -53 5 -9 17 -10 36 -5 16 4 52 9 79
12 53 5 82 20 67 35 -9 9 -137 18 -163 11z"/>
<path d="M457 230 c-11 -16 -21 -19 -47 -14 -25 6 -32 4 -28 -7 2 -8 14 -15
26 -17 14 -2 22 -11 22 -23 0 -25 20 -24 65 2 20 12 38 19 41 16 3 -3 -6 -22
-20 -43 -17 -25 -22 -42 -17 -53 5 -9 11 -28 15 -43 5 -21 3 -28 -9 -28 -8 0
-15 -4 -15 -10 0 -15 32 -12 54 5 18 14 18 16 1 50 -16 35 -16 37 2 50 12 9
22 10 30 4 7 -7 18 -6 31 2 16 10 25 9 51 -10 29 -21 50 -65 37 -78 -3 -3 -17
-1 -31 5 -32 15 -55 15 -55 2 0 -5 9 -10 20 -10 10 0 23 -7 28 -16 8 -14 24
-16 111 -12 57 3 107 10 114 17 6 6 17 11 25 11 12 0 12 -3 2 -15 -11 -13 -3
-15 59 -15 39 0 71 2 71 5 0 8 -71 35 -91 35 -11 0 -19 5 -19 10 0 6 -8 10
-17 10 -10 0 -27 7 -37 15 -11 8 -30 15 -42 15 -12 0 -33 9 -47 20 -30 24 -50
25 -67 5 -7 -8 -17 -15 -23 -15 -7 0 -7 4 1 12 26 26 12 45 -55 79 -38 18 -77
32 -87 31 -10 0 -28 6 -40 14 -28 19 -42 18 -59 -6z m143 -58 c0 -14 -11 -21
-26 -15 -21 8 -17 23 6 23 11 0 20 -4 20 -8z m200 -110 c0 -21 -18 -42 -37
-42 -13 0 -18 41 -6 53 14 14 43 7 43 -11z"/>
<path d="M2350 216 c0 -18 16 -29 30 -21 13 8 1 35 -16 35 -8 0 -14 -6 -14
-14z"/>
<path d="M2390 171 c0 -10 30 -24 37 -17 3 3 2 9 -2 15 -8 13 -35 15 -35 2z"/>
<path d="M413 99 c3 -12 2 -31 -4 -41 -8 -15 -6 -18 15 -18 14 0 28 -4 31 -10
8 -13 25 -13 25 0 0 16 -44 79 -59 85 -10 4 -12 -1 -8 -16z"/>
</g>
</svg>
